<svg xmlns="http://www.w3.org/2000/svg" xmlns:xlink="http://www.w3.org/1999/xlink" version="1.1" viewBox="0 0 3404 2920" style="background: #ffffff"><defs joint-selector="defs"></defs><g joint-selector="layers" transform="matrix(1,0,0,1,0,0)" ><g ></g><g ><g   id="j_99"  transform="translate(20,2875)"><g id="v-1215"><text  id="v-1216" font-size="22px" xml:space="preserve" y="0.8em" font-weight="normal" text-anchor="start" fill="#aaaaaa" pointer-events="none" font-family="Open Sans" display="block"><tspan dy="0" >Tuesday, April 30, 2024 at 4:17 PM Central European Summer Time</tspan></text></g></g><g   id="j_98"  transform="translate(20,2831)"><g id="v-1213"><text  id="v-1214" font-size="36px" xml:space="preserve" y="0.8em" font-weight="normal" text-anchor="start" fill="#000000" pointer-events="none" font-family="Open Sans" display="block"><tspan dy="0" >[Container] CitrineOS</tspan></text></g></g><g   id="j_67"  transform="translate(49,1210)" style=""><g  id="v-812" style="opacity: 1;"><ellipse  id="v-813" stroke="#0f5eaa" stroke-width="2" pointer-events="visiblePainted" fill="#1168bd" cx="225" cy="225" rx="225" ry="225" style="fill: rgb(17, 104, 189); stroke: rgb(15, 94, 170);"></ellipse><text  id="v-814" font-size="34" xml:space="preserve" y="0.8em" font-weight="bold" text-anchor="middle" pointer-events="visible" font-family="Open Sans" fill="#ffffff" transform="matrix(1,0,0,1,225,166.9)" style="fill: rgb(255, 255, 255);"><tspan dy="0" >Charging Station OCPP</tspan><tspan dy="1.2em" x="0" >2.0.1</tspan></text><text  id="v-815" font-size="17" xml:space="preserve" y="0.8em" text-anchor="middle" font-family="Open Sans" fill="#ffffff" transform="matrix(1,0,0,1,225,251.9)" style="fill: rgb(255, 255, 255);"><tspan dy="0" >[Software System]</tspan></text><text  id="v-816" font-size="24" xml:space="preserve" display="none" y="0.8em" text-anchor="middle" font-family="Open Sans" fill="#ffffff" transform="matrix(1,0,0,1,225,283.1)" style="fill: rgb(255, 255, 255);"><tspan dy="0" style="fill-opacity: 0; stroke-opacity: 0;" >-</tspan></text><g  id="v-817" font-weight="normal" text-anchor="middle" color="#ffffff" transform="matrix(1,0,0,1,222.5,293.1)" display="none" style="fill: rgb(255, 255, 255);"><g ></g><g ></g><g ></g><g ></g></g><image  id="v-818"></image></g></g><g   id="j_70"  transform="translate(659,50)" style=""><g id="v-837"><rect  id="v-838" width="2694" height="2820" rx="0" ry="0" fill="#ffffff" stroke="#0f5eaa" stroke-width="1" stroke-dasharray="20,20" pointer-events="none"></rect><text  id="v-839" font-size="24px" xml:space="preserve" y="2781" font-weight="normal" fill="#0f5eaa" text-anchor="start" pointer-events="visible" font-family="Open Sans" transform="matrix(1,0,0,1,15,0)"><tspan dy="0" >CitrineOS</tspan></text><text  id="v-840" font-size="17px" xml:space="preserve" y="2805" font-weight="normal" fill="#0f5eaa" text-anchor="start" pointer-events="visible" font-family="Open Sans" transform="matrix(1,0,0,1,15,0)"><tspan dy="0" >[Software System]</tspan></text><image  id="v-841" pointer-events="visible"></image></g></g><g   id="j_69"  transform="translate(2085,125)" style=""><g id="v-832"><rect  id="v-833" width="510" height="2654" rx="0" ry="0" fill="#ffffff" stroke="#444444" stroke-width="1" stroke-dasharray="5,5" pointer-events="none"></rect><text  id="v-834" font-size="24px" xml:space="preserve" y="2639" font-weight="normal" fill="#444444" text-anchor="start" pointer-events="visible" font-family="Open Sans" transform="matrix(1,0,0,1,15,0)"><tspan dy="0" >Modules</tspan></text><text  id="v-835" font-size="17px" xml:space="preserve" display="none" y="2639" font-weight="normal" fill="#444444" text-anchor="start" pointer-events="visible" font-family="Open Sans" transform="matrix(1,0,0,1,15,0)"><tspan dy="0" style="fill-opacity: 0; stroke-opacity: 0;" >-</tspan></text><image  id="v-836" pointer-events="visible"></image></g></g><g   id="j_72"  transform="translate(679,1280)" style=""><g  id="v-855" style="opacity: 1;"><rect  id="v-856" rx="20" ry="20" stroke="#c7c7c7" stroke-width="2" pointer-events="visiblePainted" fill="#dddddd" width="450" height="300" style="fill: rgb(221, 221, 221); stroke: rgb(199, 199, 199);"></rect><text  id="v-857" font-size="34" xml:space="preserve" y="0.8em" font-weight="bold" text-anchor="middle" pointer-events="visible" font-family="Open Sans" fill="#000000" transform="matrix(1,0,0,1,225,113.1)" style="fill: rgb(0, 0, 0);"><tspan dy="0" >Message Router</tspan></text><text  id="v-858" font-size="17" xml:space="preserve" y="0.8em" text-anchor="middle" font-family="Open Sans" fill="#000000" transform="matrix(1,0,0,1,225,155.6)" style="fill: rgb(0, 0, 0);"><tspan dy="0" >[Container]</tspan></text><text  id="v-859" font-size="24" xml:space="preserve" display="none" y="0.8em" text-anchor="middle" font-family="Open Sans" fill="#000000" transform="matrix(1,0,0,1,225,186.9)" style="fill: rgb(0, 0, 0);"><tspan dy="0" style="fill-opacity: 0; stroke-opacity: 0;" >-</tspan></text><g  id="v-860" color="#000000" transform="matrix(1,0,0,1,222.5,196.9)" display="none" style="fill: rgb(0, 0, 0);"><g ></g><g ></g><g ></g><g ></g></g><image  id="v-861"></image></g></g><g   id="j_74"  transform="translate(1373,1284)" style=""><g  id="v-875" style="opacity: 1;"><path  d="M 30,0 a 30,150 0,0,1 0 300 a 30,150 0,0,1 0 -300 l 390,0 a 30,150 0,0,1 0 300 l -390,0" id="v-876" stroke="#e69500" stroke-width="2" pointer-events="visiblePainted" fill="#ffa500" style="fill: rgb(255, 165, 0); stroke: rgb(230, 149, 0);"></path><rect  id="v-877" stroke-width="0" pointer-events="visiblePainted" fill="none" stroke="none" width="420" height="300" x="30" y="0"></rect><text  id="v-878" font-size="34" xml:space="preserve" y="0.8em" font-weight="bold" text-anchor="middle" pointer-events="visible" font-family="Open Sans" fill="#000000" transform="matrix(1,0,0,1,240,113.1)" style="fill: rgb(0, 0, 0);"><tspan dy="0" >Message Broker</tspan></text><text  id="v-879" font-size="17" xml:space="preserve" y="0.8em" text-anchor="middle" font-family="Open Sans" fill="#000000" transform="matrix(1,0,0,1,240,155.6)" style="fill: rgb(0, 0, 0);"><tspan dy="0" >[Container]</tspan></text><text  id="v-880" font-size="24" xml:space="preserve" display="none" y="0.8em" text-anchor="middle" font-family="Open Sans" fill="#000000" transform="matrix(1,0,0,1,240,186.9)" style="fill: rgb(0, 0, 0);"><tspan dy="0" style="fill-opacity: 0; stroke-opacity: 0;" >-</tspan></text><g  id="v-881" font-weight="normal" text-anchor="middle" color="#000000" transform="matrix(1,0,0,1,237.5,196.9)" display="none" style="fill: rgb(0, 0, 0);"><g ></g><g ></g><g ></g><g ></g></g><image  id="v-882"></image></g></g><g   id="j_75"  transform="translate(2883,1276)" style=""><g  id="v-886" style="opacity: 1;"><path  d="M 0,30 a 225,30 0,0,0 450 0 a 225,30 0,0,0 -450 0 l 0,240 a 225,30 0,0,0 450 0 l 0,-240" id="v-887" stroke="#c7c7c7" stroke-width="2" pointer-events="visiblePainted" fill="#dddddd" style="fill: rgb(221, 221, 221); stroke: rgb(199, 199, 199);"></path><rect  id="v-888" stroke-width="0" pointer-events="visiblePainted" fill="none" stroke="none" width="450" height="270" x="0" y="30"></rect><text  id="v-889" font-size="34" xml:space="preserve" y="0.8em" font-weight="bold" text-anchor="middle" pointer-events="visible" font-family="Open Sans" fill="#000000" transform="matrix(1,0,0,1,225,143.1)" style="fill: rgb(0, 0, 0);"><tspan dy="0" >Postgres Database</tspan></text><text  id="v-890" font-size="17" xml:space="preserve" y="0.8em" text-anchor="middle" font-family="Open Sans" fill="#000000" transform="matrix(1,0,0,1,225,185.6)" style="fill: rgb(0, 0, 0);"><tspan dy="0" >[Container]</tspan></text><text  id="v-891" font-size="24" xml:space="preserve" display="none" y="0.8em" text-anchor="middle" font-family="Open Sans" fill="#000000" transform="matrix(1,0,0,1,225,216.9)" style="fill: rgb(0, 0, 0);"><tspan dy="0" style="fill-opacity: 0; stroke-opacity: 0;" >-</tspan></text><g  id="v-892" font-weight="normal" text-anchor="middle" color="#000000" transform="matrix(1,0,0,1,222.5,226.9)" display="none" style="fill: rgb(0, 0, 0);"><g ></g><g ></g><g ></g><g ></g></g><image  id="v-893"></image></g></g><g   id="j_76"  transform="translate(2845,70)" style=""><g  id="v-894" style="opacity: 1;"><rect  id="v-895" rx="20" ry="20" stroke="#c7c7c7" stroke-width="2" pointer-events="visiblePainted" fill="#dddddd" width="450" height="300" style="fill: rgb(221, 221, 221); stroke: rgb(199, 199, 199);"></rect><text  id="v-896" font-size="34" xml:space="preserve" y="0.8em" font-weight="bold" text-anchor="middle" pointer-events="visible" font-family="Open Sans" fill="#000000" transform="matrix(1,0,0,1,225,98.1)" style="fill: rgb(0, 0, 0);"><tspan dy="0" >Directus</tspan></text><text  id="v-897" font-size="17" xml:space="preserve" y="0.8em" text-anchor="middle" font-family="Open Sans" fill="#000000" transform="matrix(1,0,0,1,225,140.6)" style="fill: rgb(0, 0, 0);"><tspan dy="0" >[Container]</tspan></text><text  id="v-898" font-size="24" xml:space="preserve" y="0.8em" text-anchor="middle" font-family="Open Sans" fill="#000000" transform="matrix(1,0,0,1,225,171.9)" style="fill: rgb(0, 0, 0);"><tspan dy="0" >Data interaction UI</tspan></text><g  id="v-899" color="#000000" transform="matrix(1,0,0,1,222.5,211.9)" display="none" style="fill: rgb(0, 0, 0);"><g ></g><g ></g><g ></g><g ></g></g><image  id="v-900"></image></g></g><g   id="j_68"  transform="translate(2115,145)" style=""><g  id="v-825" style="opacity: 1;"><rect  id="v-826" rx="20" ry="20" stroke="#c7c7c7" stroke-width="2" pointer-events="visiblePainted" fill="#dddddd" width="450" height="300" style="fill: rgb(221, 221, 221); stroke: rgb(199, 199, 199);"></rect><text  id="v-827" font-size="34" xml:space="preserve" y="0.8em" font-weight="bold" text-anchor="middle" pointer-events="visible" font-family="Open Sans" fill="#000000" transform="matrix(1,0,0,1,225,83.1)" style="fill: rgb(0, 0, 0);"><tspan dy="0" >EV Driver Module</tspan></text><text  id="v-828" font-size="17" xml:space="preserve" y="0.8em" text-anchor="middle" font-family="Open Sans" fill="#000000" transform="matrix(1,0,0,1,225,125.6)" style="fill: rgb(0, 0, 0);"><tspan dy="0" >[Container: CitrineOS]</tspan></text><text  id="v-829" font-size="24" xml:space="preserve" y="0.8em" text-anchor="middle" font-family="Open Sans" fill="#000000" transform="matrix(1,0,0,1,225,156.9)" style="fill: rgb(0, 0, 0);"><tspan dy="0" >Manages EV driver accounts and</tspan><tspan dy="1.2em" x="0" >authentication.</tspan></text><g  id="v-830" color="#000000" transform="matrix(1,0,0,1,222.5,226.9)" display="none" style="fill: rgb(0, 0, 0);"><g ></g><g ></g><g ></g><g ></g></g><image  id="v-831"></image></g></g><g   id="j_71"  transform="translate(2125,1660)" style=""><g  id="v-848" style="opacity: 1;"><rect  id="v-849" rx="20" ry="20" stroke="#c7c7c7" stroke-width="2" pointer-events="visiblePainted" fill="#dddddd" width="450" height="300" style="fill: rgb(221, 221, 221); stroke: rgb(199, 199, 199);"></rect><text  id="v-850" font-size="34" xml:space="preserve" y="0.8em" font-weight="bold" text-anchor="middle" pointer-events="visible" font-family="Open Sans" fill="#000000" transform="matrix(1,0,0,1,225,98.1)" style="fill: rgb(0, 0, 0);"><tspan dy="0" >Transactions Module</tspan></text><text  id="v-851" font-size="17" xml:space="preserve" y="0.8em" text-anchor="middle" font-family="Open Sans" fill="#000000" transform="matrix(1,0,0,1,225,140.6)" style="fill: rgb(0, 0, 0);"><tspan dy="0" >[Container: CitrineOS]</tspan></text><text  id="v-852" font-size="24" xml:space="preserve" y="0.8em" text-anchor="middle" font-family="Open Sans" fill="#000000" transform="matrix(1,0,0,1,225,171.9)" style="fill: rgb(0, 0, 0);"><tspan dy="0" >Handles charging transactions.</tspan></text><g  id="v-853" color="#000000" transform="matrix(1,0,0,1,222.5,211.9)" display="none" style="fill: rgb(0, 0, 0);"><g ></g><g ></g><g ></g><g ></g></g><image  id="v-854"></image></g></g><g   id="j_73"  transform="translate(2120,525)" style=""><g  id="v-868" style="opacity: 1;"><rect  id="v-869" rx="20" ry="20" stroke="#c7c7c7" stroke-width="2" pointer-events="visiblePainted" fill="#dddddd" width="450" height="300" style="fill: rgb(221, 221, 221); stroke: rgb(199, 199, 199);"></rect><text  id="v-870" font-size="34" xml:space="preserve" y="0.8em" font-weight="bold" text-anchor="middle" pointer-events="visible" font-family="Open Sans" fill="#000000" transform="matrix(1,0,0,1,225,98.1)" style="fill: rgb(0, 0, 0);"><tspan dy="0" >Monitoring Module</tspan></text><text  id="v-871" font-size="17" xml:space="preserve" y="0.8em" text-anchor="middle" font-family="Open Sans" fill="#000000" transform="matrix(1,0,0,1,225,140.6)" style="fill: rgb(0, 0, 0);"><tspan dy="0" >[Container: CitrineOS]</tspan></text><text  id="v-872" font-size="24" xml:space="preserve" y="0.8em" text-anchor="middle" font-family="Open Sans" fill="#000000" transform="matrix(1,0,0,1,225,171.9)" style="fill: rgb(0, 0, 0);"><tspan dy="0" >Monitors charger status and health.</tspan></text><g  id="v-873" color="#000000" transform="matrix(1,0,0,1,222.5,211.9)" display="none" style="fill: rgb(0, 0, 0);"><g ></g><g ></g><g ></g><g ></g></g><image  id="v-874"></image></g></g><g   id="j_77"  transform="translate(2120,2030)" style=""><g  id="v-907" style="opacity: 1;"><rect  id="v-908" rx="20" ry="20" stroke="#c7c7c7" stroke-width="2" pointer-events="visiblePainted" fill="#dddddd" width="450" height="300" style="fill: rgb(221, 221, 221); stroke: rgb(199, 199, 199);"></rect><text  id="v-909" font-size="34" xml:space="preserve" y="0.8em" font-weight="bold" text-anchor="middle" pointer-events="visible" font-family="Open Sans" fill="#000000" transform="matrix(1,0,0,1,225,83.1)" style="fill: rgb(0, 0, 0);"><tspan dy="0" >Certificates Module</tspan></text><text  id="v-910" font-size="17" xml:space="preserve" y="0.8em" text-anchor="middle" font-family="Open Sans" fill="#000000" transform="matrix(1,0,0,1,225,125.6)" style="fill: rgb(0, 0, 0);"><tspan dy="0" >[Container: CitrineOS]</tspan></text><text  id="v-911" font-size="24" xml:space="preserve" y="0.8em" text-anchor="middle" font-family="Open Sans" fill="#000000" transform="matrix(1,0,0,1,225,156.9)" style="fill: rgb(0, 0, 0);"><tspan dy="0" >Handles certificate management</tspan><tspan dy="1.2em" x="0" >and distribution.</tspan></text><g  id="v-912" color="#000000" transform="matrix(1,0,0,1,222.5,226.9)" display="none" style="fill: rgb(0, 0, 0);"><g ></g><g ></g><g ></g><g ></g></g><image  id="v-913"></image></g></g><g   id="j_78"  transform="translate(2125,895)" style=""><g  id="v-920" style="opacity: 1;"><rect  id="v-921" rx="20" ry="20" stroke="#c7c7c7" stroke-width="2" pointer-events="visiblePainted" fill="#dddddd" width="450" height="300" style="fill: rgb(221, 221, 221); stroke: rgb(199, 199, 199);"></rect><text  id="v-922" font-size="34" xml:space="preserve" y="0.8em" font-weight="bold" text-anchor="middle" pointer-events="visible" font-family="Open Sans" fill="#000000" transform="matrix(1,0,0,1,225,83.1)" style="fill: rgb(0, 0, 0);"><tspan dy="0" >Reporting Module</tspan></text><text  id="v-923" font-size="17" xml:space="preserve" y="0.8em" text-anchor="middle" font-family="Open Sans" fill="#000000" transform="matrix(1,0,0,1,225,125.6)" style="fill: rgb(0, 0, 0);"><tspan dy="0" >[Container: CitrineOS]</tspan></text><text  id="v-924" font-size="24" xml:space="preserve" y="0.8em" text-anchor="middle" font-family="Open Sans" fill="#000000" transform="matrix(1,0,0,1,225,156.9)" style="fill: rgb(0, 0, 0);"><tspan dy="0" >Generates reports on system and</tspan><tspan dy="1.2em" x="0" >charger usage.</tspan></text><g  id="v-925" color="#000000" transform="matrix(1,0,0,1,222.5,226.9)" display="none" style="fill: rgb(0, 0, 0);"><g ></g><g ></g><g ></g><g ></g></g><image  id="v-926"></image></g></g><g   id="j_79"  transform="translate(2105,2405)" style=""><g  id="v-933" style="opacity: 1;"><rect  id="v-934" rx="20" ry="20" stroke="#c7c7c7" stroke-width="2" pointer-events="visiblePainted" fill="#dddddd" width="450" height="300" style="fill: rgb(221, 221, 221); stroke: rgb(199, 199, 199);"></rect><text  id="v-935" font-size="34" xml:space="preserve" y="0.8em" font-weight="bold" text-anchor="middle" pointer-events="visible" font-family="Open Sans" fill="#000000" transform="matrix(1,0,0,1,225,83.1)" style="fill: rgb(0, 0, 0);"><tspan dy="0" >Configuration Module</tspan></text><text  id="v-936" font-size="17" xml:space="preserve" y="0.8em" text-anchor="middle" font-family="Open Sans" fill="#000000" transform="matrix(1,0,0,1,225,125.6)" style="fill: rgb(0, 0, 0);"><tspan dy="0" >[Container: CitrineOS]</tspan></text><text  id="v-937" font-size="24" xml:space="preserve" y="0.8em" text-anchor="middle" font-family="Open Sans" fill="#000000" transform="matrix(1,0,0,1,225,156.9)" style="fill: rgb(0, 0, 0);"><tspan dy="0" >Manages configuration for chargers</tspan><tspan dy="1.2em" x="0" >and the system.</tspan></text><g  id="v-938" color="#000000" transform="matrix(1,0,0,1,222.5,226.9)" display="none" style="fill: rgb(0, 0, 0);"><g ></g><g ></g><g ></g><g ></g></g><image  id="v-939"></image></g></g><g   id="j_80"  transform="translate(2123,1284)" style=""><g  id="v-946" style="opacity: 1;"><rect  id="v-947" rx="20" ry="20" stroke="#c7c7c7" stroke-width="2" pointer-events="visiblePainted" fill="#dddddd" width="450" height="300" style="fill: rgb(221, 221, 221); stroke: rgb(199, 199, 199);"></rect><text  id="v-948" font-size="34" xml:space="preserve" y="0.8em" font-weight="bold" text-anchor="middle" pointer-events="visible" font-family="Open Sans" fill="#000000" transform="matrix(1,0,0,1,225,83.1)" style="fill: rgb(0, 0, 0);"><tspan dy="0" >Smart Charging Module</tspan></text><text  id="v-949" font-size="17" xml:space="preserve" y="0.8em" text-anchor="middle" font-family="Open Sans" fill="#000000" transform="matrix(1,0,0,1,225,125.6)" style="fill: rgb(0, 0, 0);"><tspan dy="0" >[Container: CitrineOS]</tspan></text><text  id="v-950" font-size="24" xml:space="preserve" y="0.8em" text-anchor="middle" font-family="Open Sans" fill="#000000" transform="matrix(1,0,0,1,225,156.9)" style="fill: rgb(0, 0, 0);"><tspan dy="0" >Optimizes charging processes for</tspan><tspan dy="1.2em" x="0" >efficiency.</tspan></text><g  id="v-951" color="#000000" transform="matrix(1,0,0,1,222.5,226.9)" display="none" style="fill: rgb(0, 0, 0);"><g ></g><g ></g><g ></g><g ></g></g><image  id="v-952"></image></g></g><g   id="j_81" ><path  stroke="#707070" d="M 2575 1158 L 2883 1313" id="v-962" stroke-width="2" stroke-dasharray="30 30" fill="none" style="opacity: 1;"></path><path  fill="black" stroke="black" d="M 0 0 0 0" transform="matrix(0.8934736692458592,0.44911557795776896,-0.44911557795776896,0.8934736692458592,2575,1158.0899658203125)"></path><path  fill="#707070" stroke="#707070" d="M 20 0 L 0 10 L 20 20 z" id="v-964" transform="matrix(-0.8934736991475355,-0.4491155184711603,0.4491155184711603,-0.8934736991475355,2878.5087673536386,1321.8447154183746)" style="opacity: 1;"></path><path  d="M 2575 1158 L 2883 1313" id="v-963" fill="none" style="cursor: default;"></path><g ><g id="v-956"  label-idx="0" cursor="move" transform="matrix(1,0,0,1,2729,1235.5)" style="cursor: default; opacity: 1;"><rect joint-selector="rect" id="v-959" fill="#ffffff" rx="3" ry="3" pointer-events="none" width="0" height="0" transform="matrix(1,0,0,1,0,0)"></rect><text joint-selector="text" id="v-958" font-size="24px" xml:space="preserve" display="none" y="0.8em" fill="#707070" text-anchor="middle" pointer-events="none" font-family="Open Sans" font-weight="normal"><tspan dy="0" style="fill-opacity: 0; stroke-opacity: 0;" >-</tspan></text></g><g id="v-957"  label-idx="1" cursor="move" transform="matrix(1,0,0,1,2719,1247.5)" style="cursor: default; opacity: 1;"><rect joint-selector="rect" id="v-961" fill="#ffffff" rx="3" ry="3"  width="0" height="0" transform="matrix(1,0,0,1,0,0)" display="none"></rect><text joint-selector="text" id="v-960" fill="#000000" font-size="14" text-anchor="middle" pointer-events="none"></text></g></g><g  display="none"></g><g  id="v-966" display="none"><g  id="v-954"><path  end="source" d="M 26 0 L 0 13 L 26 26 z"></path></g><g  id="v-955"><path  end="target" d="M 26 0 L 0 13 L 26 26 z"></path></g></g><g  id="v-965" display="none"><g  id="v-953" transform="translate(2610.7305639386063, 1175.9812902937792) "><g  event="remove"><circle r="11"></circle><path transform="scale(.8) translate(-16, -16)" d="M24.778,21.419 19.276,15.917 24.777,10.415 21.949,7.585 16.447,13.087 10.945,7.585 8.117,10.415 13.618,15.917 8.116,21.419 10.946,24.248 16.447,18.746 21.948,24.248z"></path><title>Remove link.</title></g><g  event="link:options"><circle r="11" transform="translate(25)"></circle><path fill="white" transform="scale(.55) translate(29, -16)" d="M31.229,17.736c0.064-0.571,0.104-1.148,0.104-1.736s-0.04-1.166-0.104-1.737l-4.377-1.557c-0.218-0.716-0.504-1.401-0.851-2.05l1.993-4.192c-0.725-0.91-1.549-1.734-2.458-2.459l-4.193,1.994c-0.647-0.347-1.334-0.632-2.049-0.849l-1.558-4.378C17.165,0.708,16.588,0.667,16,0.667s-1.166,0.041-1.737,0.105L12.707,5.15c-0.716,0.217-1.401,0.502-2.05,0.849L6.464,4.005C5.554,4.73,4.73,5.554,4.005,6.464l1.994,4.192c-0.347,0.648-0.632,1.334-0.849,2.05l-4.378,1.557C0.708,14.834,0.667,15.412,0.667,16s0.041,1.165,0.105,1.736l4.378,1.558c0.217,0.715,0.502,1.401,0.849,2.049l-1.994,4.193c0.725,0.909,1.549,1.733,2.459,2.458l4.192-1.993c0.648,0.347,1.334,0.633,2.05,0.851l1.557,4.377c0.571,0.064,1.148,0.104,1.737,0.104c0.588,0,1.165-0.04,1.736-0.104l1.558-4.377c0.715-0.218,1.399-0.504,2.049-0.851l4.193,1.993c0.909-0.725,1.733-1.549,2.458-2.458l-1.993-4.193c0.347-0.647,0.633-1.334,0.851-2.049L31.229,17.736zM16,20.871c-2.69,0-4.872-2.182-4.872-4.871c0-2.69,2.182-4.872,4.872-4.872c2.689,0,4.871,2.182,4.871,4.872C20.871,18.689,18.689,20.871,16,20.871z"></path><title>Link options.</title></g></g></g></g><g   id="j_82" ><path  stroke="#707070" d="M 1638 1584 L 1830 2306 C 1832 2312.6666666666665 1836 2317.333333333333 1842 2320 L 2105 2447" id="v-977" stroke-width="2" stroke-dasharray="30 30" fill="none" style="opacity: 1;"></path><path  fill="black" stroke="black" d="M 0 0 0 0" transform="matrix(0.25745309116845383,0.9662907977662872,-0.9662907977662872,0.25745309116845383,1637.969970703125,1584)"></path><path  fill="#707070" stroke="#707070" d="M 20 0 L 0 10 L 20 20 z" id="v-979" transform="matrix(-0.9012125860910161,-0.43337728905786344,0.43337728905786344,-0.9012125860910161,2100.6661459390816,2455.8122073452387)" style="opacity: 1;"></path><path  d="M 1638 1584 L 1830 2306 C 1832 2312.6666666666665 1836 2317.333333333333 1842 2320 L 2105 2447" id="v-978" fill="none" style="cursor: default;"></path><g ><g id="v-971"  label-idx="0" cursor="move" transform="matrix(1,0,0,1,1773.978759765625,2095.336669921875)" style="cursor: default; opacity: 1;"><rect joint-selector="rect" id="v-974" fill="#ffffff" rx="3" ry="3" pointer-events="none" width="0" height="0" transform="matrix(1,0,0,1,0,0)"></rect><text joint-selector="text" id="v-973" font-size="24px" xml:space="preserve" display="none" y="0.8em" fill="#707070" text-anchor="middle" pointer-events="none" font-family="Open Sans" font-weight="normal"><tspan dy="0" style="fill-opacity: 0; stroke-opacity: 0;" >-</tspan></text></g><g id="v-972"  label-idx="1" cursor="move" transform="matrix(1,0,0,1,1763.978759765625,2107.336669921875)" style="cursor: default; opacity: 1;"><rect joint-selector="rect" id="v-976" fill="#ffffff" rx="3" ry="3"  width="0" height="0" transform="matrix(1,0,0,1,0,0)" display="none"></rect><text joint-selector="text" id="v-975" fill="#000000" font-size="14" text-anchor="middle" pointer-events="none"></text></g></g><g  display="none"><g  transform="translate(1833, 2316)" id="v-1552"><circle  idx="0" r="10"></circle><path  idx="0" d="M16,5.333c-7.732,0-14,4.701-14,10.5c0,1.982,0.741,3.833,2.016,5.414L2,25.667l5.613-1.441c2.339,1.317,5.237,2.107,8.387,2.107c7.732,0,14-4.701,14-10.5C30,10.034,23.732,5.333,16,5.333z" transform="translate(5, -33)"></path><path  idx="0" transform="scale(.8) translate(9.5, -37)" d="M24.778,21.419 19.276,15.917 24.777,10.415 21.949,7.585 16.447,13.087 10.945,7.585 8.117,10.415 13.618,15.917 8.116,21.419 10.946,24.248 16.447,18.746 21.948,24.248z"><title>Remove vertex.</title></path></g></g><g  id="v-981" display="none"><g  id="v-969"><path  end="source" d="M 26 0 L 0 13 L 26 26 z"></path></g><g  id="v-970"><path  end="target" d="M 26 0 L 0 13 L 26 26 z"></path></g></g><g  id="v-980" display="none"><g  id="v-967" transform="translate(1648.279844223504, 1622.6564975488016) "><g  event="remove"><circle r="11"></circle><path transform="scale(.8) translate(-16, -16)" d="M24.778,21.419 19.276,15.917 24.777,10.415 21.949,7.585 16.447,13.087 10.945,7.585 8.117,10.415 13.618,15.917 8.116,21.419 10.946,24.248 16.447,18.746 21.948,24.248z"></path><title>Remove link.</title></g><g  event="link:options"><circle r="11" transform="translate(25)"></circle><path fill="white" transform="scale(.55) translate(29, -16)" d="M31.229,17.736c0.064-0.571,0.104-1.148,0.104-1.736s-0.04-1.166-0.104-1.737l-4.377-1.557c-0.218-0.716-0.504-1.401-0.851-2.05l1.993-4.192c-0.725-0.91-1.549-1.734-2.458-2.459l-4.193,1.994c-0.647-0.347-1.334-0.632-2.049-0.849l-1.558-4.378C17.165,0.708,16.588,0.667,16,0.667s-1.166,0.041-1.737,0.105L12.707,5.15c-0.716,0.217-1.401,0.502-2.05,0.849L6.464,4.005C5.554,4.73,4.73,5.554,4.005,6.464l1.994,4.192c-0.347,0.648-0.632,1.334-0.849,2.05l-4.378,1.557C0.708,14.834,0.667,15.412,0.667,16s0.041,1.165,0.105,1.736l4.378,1.558c0.217,0.715,0.502,1.401,0.849,2.049l-1.994,4.193c0.725,0.909,1.549,1.733,2.459,2.458l4.192-1.993c0.648,0.347,1.334,0.633,2.05,0.851l1.557,4.377c0.571,0.064,1.148,0.104,1.737,0.104c0.588,0,1.165-0.04,1.736-0.104l1.558-4.377c0.715-0.218,1.399-0.504,2.049-0.851l4.193,1.993c0.909-0.725,1.733-1.549,2.458-2.458l-1.993-4.193c0.347-0.647,0.633-1.334,0.851-2.049L31.229,17.736zM16,20.871c-2.69,0-4.872-2.182-4.872-4.871c0-2.69,2.182-4.872,4.872-4.872c2.689,0,4.871,2.182,4.871,4.872C20.871,18.689,18.689,20.871,16,20.871z"></path><title>Link options.</title></g></g></g></g><g   id="j_83" ><path  stroke="#707070" d="M 499 1433 L 679 1432" id="v-991" stroke-width="2" stroke-dasharray="30 30" fill="none" style="opacity: 1;"></path><path  fill="black" stroke="black" d="M 0 0 0 0" transform="matrix(0.999968883454161,-0.00788873395663028,0.00788873395663028,0.999968883454161,499,1433.2099609375)"></path><path  fill="#707070" stroke="#707070" d="M 20 0 L 0 10 L 20 20 z" id="v-993" transform="matrix(-0.999968883454161,0.007888733956630603,-0.007888733956630603,-0.999968883454161,679.0788813498891,1441.7896979793502)" style="opacity: 1;"></path><path  d="M 499 1433 L 679 1432" id="v-992" fill="none" style="cursor: default;"></path><g ><g id="v-985"  label-idx="0" cursor="move" transform="matrix(1,0,0,1,589,1432.5)" style="cursor: default; opacity: 1;"><rect joint-selector="rect" id="v-988" fill="#ffffff" rx="3" ry="3" pointer-events="none" width="122.6875" height="32.6875" transform="matrix(1,0,0,1,-61.3,-16.4)"></rect><text joint-selector="text" id="v-987" font-size="24px" xml:space="preserve" y="0.8em" fill="#707070" text-anchor="middle" pointer-events="none" font-family="Open Sans" font-weight="normal" transform="matrix(1,0,0,1,0,-9.9)"><tspan dy="0" >OCPP 2.0.1</tspan></text></g><g id="v-986"  label-idx="1" cursor="move" transform="matrix(1,0,0,1,579,1459.5)" style="cursor: default; opacity: 1;"><rect joint-selector="rect" id="v-990" fill="#ffffff" rx="3" ry="3"  width="0" height="0" transform="matrix(1,0,0,1,0,0)" display="none"></rect><text joint-selector="text" id="v-989" fill="#000000" font-size="14" text-anchor="middle" pointer-events="none"></text></g></g><g  display="none"></g><g  id="v-995" display="none"><g  id="v-983"><path  end="source" d="M 26 0 L 0 13 L 26 26 z"></path></g><g  id="v-984"><path  end="target" d="M 26 0 L 0 13 L 26 26 z"></path></g></g><g  id="v-994" display="none"><g  id="v-982" transform="translate(538.999382730338, 1432.7777812070535) "><g  event="remove"><circle r="11"></circle><path transform="scale(.8) translate(-16, -16)" d="M24.778,21.419 19.276,15.917 24.777,10.415 21.949,7.585 16.447,13.087 10.945,7.585 8.117,10.415 13.618,15.917 8.116,21.419 10.946,24.248 16.447,18.746 21.948,24.248z"></path><title>Remove link.</title></g><g  event="link:options"><circle r="11" transform="translate(25)"></circle><path fill="white" transform="scale(.55) translate(29, -16)" d="M31.229,17.736c0.064-0.571,0.104-1.148,0.104-1.736s-0.04-1.166-0.104-1.737l-4.377-1.557c-0.218-0.716-0.504-1.401-0.851-2.05l1.993-4.192c-0.725-0.91-1.549-1.734-2.458-2.459l-4.193,1.994c-0.647-0.347-1.334-0.632-2.049-0.849l-1.558-4.378C17.165,0.708,16.588,0.667,16,0.667s-1.166,0.041-1.737,0.105L12.707,5.15c-0.716,0.217-1.401,0.502-2.05,0.849L6.464,4.005C5.554,4.73,4.73,5.554,4.005,6.464l1.994,4.192c-0.347,0.648-0.632,1.334-0.849,2.05l-4.378,1.557C0.708,14.834,0.667,15.412,0.667,16s0.041,1.165,0.105,1.736l4.378,1.558c0.217,0.715,0.502,1.401,0.849,2.049l-1.994,4.193c0.725,0.909,1.549,1.733,2.459,2.458l4.192-1.993c0.648,0.347,1.334,0.633,2.05,0.851l1.557,4.377c0.571,0.064,1.148,0.104,1.737,0.104c0.588,0,1.165-0.04,1.736-0.104l1.558-4.377c0.715-0.218,1.399-0.504,2.049-0.851l4.193,1.993c0.909-0.725,1.733-1.549,2.458-2.458l-1.993-4.193c0.347-0.647,0.633-1.334,0.851-2.049L31.229,17.736zM16,20.871c-2.69,0-4.872-2.182-4.872-4.871c0-2.69,2.182-4.872,4.872-4.872c2.689,0,4.871,2.182,4.871,4.872C20.871,18.689,18.689,20.871,16,20.871z"></path><title>Link options.</title></g></g></g></g><g   id="j_84" ><path  stroke="#707070" d="M 1129 1431 L 1373 1433" id="v-1008" stroke-width="2" stroke-dasharray="30 30" fill="none" style="opacity: 1;"></path><path  fill="black" stroke="black" d="M 0 0 0 0" transform="matrix(0.9999835397760972,0.005737610728041687,-0.005737610728041687,0.9999835397760972,1129,1431.300048828125)"></path><path  fill="#707070" stroke="#707070" d="M 20 0 L 0 10 L 20 20 z" id="v-1010" transform="matrix(-0.9999835405102541,-0.005737482773579714,0.005737482773579714,-0.9999835405102541,1372.9425826476793,1442.6997883578383)" style="opacity: 1;"></path><path  d="M 1129 1431 L 1373 1433" id="v-1009" fill="none" style="cursor: default;"></path><g ><g id="v-1002"  label-idx="0" cursor="move" transform="matrix(1,0,0,1,1251,1432)" style="cursor: default; opacity: 1;"><rect joint-selector="rect" id="v-1005" fill="#ffffff" rx="3" ry="3" pointer-events="none" width="185.25" height="61.484375" transform="matrix(1,0,0,1,-92.6,-30.8)"></rect><text joint-selector="text" id="v-1004" font-size="24px" xml:space="preserve" y="0.8em" fill="#707070" text-anchor="middle" pointer-events="none" font-family="Open Sans" font-weight="normal" transform="matrix(1,0,0,1,0,-24.3)"><tspan dy="0" >Publishes to and</tspan><tspan dy="1.2em" x="0" >reads from</tspan></text></g><g id="v-1003"  label-idx="1" cursor="move" transform="matrix(1,0,0,1,1241,1474)" style="cursor: default; opacity: 1;"><rect joint-selector="rect" id="v-1007" fill="#ffffff" rx="3" ry="3"  width="0" height="0" transform="matrix(1,0,0,1,0,0)" display="none"></rect><text joint-selector="text" id="v-1006" fill="#000000" font-size="14" text-anchor="middle" pointer-events="none"></text></g></g><g  display="none"></g><g  id="v-1012" display="none"><g  id="v-1000"><path  end="source" d="M 26 0 L 0 13 L 26 26 z"></path></g><g  id="v-1001"><path  end="target" d="M 26 0 L 0 13 L 26 26 z"></path></g></g><g  id="v-1011" display="none"><g  id="v-999" transform="translate(1168.9986563429009, 1431.3278578388763) "><g  event="remove"><circle r="11"></circle><path transform="scale(.8) translate(-16, -16)" d="M24.778,21.419 19.276,15.917 24.777,10.415 21.949,7.585 16.447,13.087 10.945,7.585 8.117,10.415 13.618,15.917 8.116,21.419 10.946,24.248 16.447,18.746 21.948,24.248z"></path><title>Remove link.</title></g><g  event="link:options"><circle r="11" transform="translate(25)"></circle><path fill="white" transform="scale(.55) translate(29, -16)" d="M31.229,17.736c0.064-0.571,0.104-1.148,0.104-1.736s-0.04-1.166-0.104-1.737l-4.377-1.557c-0.218-0.716-0.504-1.401-0.851-2.05l1.993-4.192c-0.725-0.91-1.549-1.734-2.458-2.459l-4.193,1.994c-0.647-0.347-1.334-0.632-2.049-0.849l-1.558-4.378C17.165,0.708,16.588,0.667,16,0.667s-1.166,0.041-1.737,0.105L12.707,5.15c-0.716,0.217-1.401,0.502-2.05,0.849L6.464,4.005C5.554,4.73,4.73,5.554,4.005,6.464l1.994,4.192c-0.347,0.648-0.632,1.334-0.849,2.05l-4.378,1.557C0.708,14.834,0.667,15.412,0.667,16s0.041,1.165,0.105,1.736l4.378,1.558c0.217,0.715,0.502,1.401,0.849,2.049l-1.994,4.193c0.725,0.909,1.549,1.733,2.459,2.458l4.192-1.993c0.648,0.347,1.334,0.633,2.05,0.851l1.557,4.377c0.571,0.064,1.148,0.104,1.737,0.104c0.588,0,1.165-0.04,1.736-0.104l1.558-4.377c0.715-0.218,1.399-0.504,2.049-0.851l4.193,1.993c0.909-0.725,1.733-1.549,2.458-2.458l-1.993-4.193c0.347-0.647,0.633-1.334,0.851-2.049L31.229,17.736zM16,20.871c-2.69,0-4.872-2.182-4.872-4.871c0-2.69,2.182-4.872,4.872-4.872c2.689,0,4.871,2.182,4.871,4.872C20.871,18.689,18.689,20.871,16,20.871z"></path><title>Link options.</title></g></g></g></g><g   id="j_85" ><path  stroke="#707070" d="M 2570 724 L 2683 749 C 2689.6666666666665 750.3333333333333 2694.6666666666665 754 2698 760 L 3016 1276" id="v-1023" stroke-width="2" stroke-dasharray="30 30" fill="none" style="opacity: 1;"></path><path  fill="black" stroke="black" d="M 0 0 0 0" transform="matrix(0.9769766447346663,0.21334628106201825,-0.21334628106201825,0.9769766447346663,2570,724.1400146484375)"></path><path  fill="#707070" stroke="#707070" d="M 20 0 L 0 10 L 20 20 z" id="v-1025" transform="matrix(-0.5237480330683397,-0.8518732287477082,0.8518732287477082,-0.5237480330683397,3007.2612285119562,1281.237535860348)" style="opacity: 1;"></path><path  d="M 2570 724 L 2683 749 C 2689.6666666666665 750.3333333333333 2694.6666666666665 754 2698 760 L 3016 1276" id="v-1024" fill="none" style="cursor: default;"></path><g ><g id="v-1017"  label-idx="0" cursor="move" transform="matrix(1,0,0,1,2821.5927734375,960.5469360351562)" style="cursor: default; opacity: 1;"><rect joint-selector="rect" id="v-1020" fill="#ffffff" rx="3" ry="3" pointer-events="none" width="0" height="0" transform="matrix(1,0,0,1,0,0)"></rect><text joint-selector="text" id="v-1019" font-size="24px" xml:space="preserve" display="none" y="0.8em" fill="#707070" text-anchor="middle" pointer-events="none" font-family="Open Sans" font-weight="normal"><tspan dy="0" style="fill-opacity: 0; stroke-opacity: 0;" >-</tspan></text></g><g id="v-1018"  label-idx="1" cursor="move" transform="matrix(1,0,0,1,2811.5927734375,972.5469360351562)" style="cursor: default; opacity: 1;"><rect joint-selector="rect" id="v-1022" fill="#ffffff" rx="3" ry="3"  width="0" height="0" transform="matrix(1,0,0,1,0,0)" display="none"></rect><text joint-selector="text" id="v-1021" fill="#000000" font-size="14" text-anchor="middle" pointer-events="none"></text></g></g><g  display="none"><g  transform="translate(2693, 751)" id="v-1553"><circle  idx="0" r="10"></circle><path  idx="0" d="M16,5.333c-7.732,0-14,4.701-14,10.5c0,1.982,0.741,3.833,2.016,5.414L2,25.667l5.613-1.441c2.339,1.317,5.237,2.107,8.387,2.107c7.732,0,14-4.701,14-10.5C30,10.034,23.732,5.333,16,5.333z" transform="translate(5, -33)"></path><path  idx="0" transform="scale(.8) translate(9.5, -37)" d="M24.778,21.419 19.276,15.917 24.777,10.415 21.949,7.585 16.447,13.087 10.945,7.585 8.117,10.415 13.618,15.917 8.116,21.419 10.946,24.248 16.447,18.746 21.948,24.248z"><title>Remove vertex.</title></path></g></g><g  id="v-1027" display="none"><g  id="v-1015"><path  end="source" d="M 26 0 L 0 13 L 26 26 z"></path></g><g  id="v-1016"><path  end="target" d="M 26 0 L 0 13 L 26 26 z"></path></g></g><g  id="v-1026" display="none"><g  id="v-1013" transform="translate(2609.0555976057876, 732.6406189393335) "><g  event="remove"><circle r="11"></circle><path transform="scale(.8) translate(-16, -16)" d="M24.778,21.419 19.276,15.917 24.777,10.415 21.949,7.585 16.447,13.087 10.945,7.585 8.117,10.415 13.618,15.917 8.116,21.419 10.946,24.248 16.447,18.746 21.948,24.248z"></path><title>Remove link.</title></g><g  event="link:options"><circle r="11" transform="translate(25)"></circle><path fill="white" transform="scale(.55) translate(29, -16)" d="M31.229,17.736c0.064-0.571,0.104-1.148,0.104-1.736s-0.04-1.166-0.104-1.737l-4.377-1.557c-0.218-0.716-0.504-1.401-0.851-2.05l1.993-4.192c-0.725-0.91-1.549-1.734-2.458-2.459l-4.193,1.994c-0.647-0.347-1.334-0.632-2.049-0.849l-1.558-4.378C17.165,0.708,16.588,0.667,16,0.667s-1.166,0.041-1.737,0.105L12.707,5.15c-0.716,0.217-1.401,0.502-2.05,0.849L6.464,4.005C5.554,4.73,4.73,5.554,4.005,6.464l1.994,4.192c-0.347,0.648-0.632,1.334-0.849,2.05l-4.378,1.557C0.708,14.834,0.667,15.412,0.667,16s0.041,1.165,0.105,1.736l4.378,1.558c0.217,0.715,0.502,1.401,0.849,2.049l-1.994,4.193c0.725,0.909,1.549,1.733,2.459,2.458l4.192-1.993c0.648,0.347,1.334,0.633,2.05,0.851l1.557,4.377c0.571,0.064,1.148,0.104,1.737,0.104c0.588,0,1.165-0.04,1.736-0.104l1.558-4.377c0.715-0.218,1.399-0.504,2.049-0.851l4.193,1.993c0.909-0.725,1.733-1.549,2.458-2.458l-1.993-4.193c0.347-0.647,0.633-1.334,0.851-2.049L31.229,17.736zM16,20.871c-2.69,0-4.872-2.182-4.872-4.871c0-2.69,2.182-4.872,4.872-4.872c2.689,0,4.871,2.182,4.871,4.872C20.871,18.689,18.689,20.871,16,20.871z"></path><title>Link options.</title></g></g></g></g><g   id="j_86" ><path  stroke="#707070" d="M 3075 370 L 3103 1276" id="v-1038" stroke-width="2" stroke-dasharray="30 30" fill="none" style="opacity: 1;"></path><path  fill="black" stroke="black" d="M 0 0 0 0" transform="matrix(0.03148547703504477,0.9995042094638099,-0.9995042094638099,0.03148547703504477,3074.72998046875,370)"></path><path  fill="#707070" stroke="#707070" d="M 20 0 L 0 10 L 20 20 z" id="v-1040" transform="matrix(-0.031485610127080246,-0.9995042052712563,0.9995042052712563,-0.031485610127080246,3093.2748921735583,1276.3149030367958)" style="opacity: 1;"></path><path  d="M 3075 370 L 3103 1276" id="v-1039" fill="none" style="cursor: default;"></path><g ><g id="v-1032"  label-idx="0" cursor="move" transform="matrix(1,0,0,1,3089,823)" style="cursor: default; opacity: 1;"><rect joint-selector="rect" id="v-1035" fill="#ffffff" rx="3" ry="3" pointer-events="none" width="128.53125" height="32.6875" transform="matrix(1,0,0,1,-64.3,-16.4)"></rect><text joint-selector="text" id="v-1034" font-size="24px" xml:space="preserve" y="0.8em" fill="#707070" text-anchor="middle" pointer-events="none" font-family="Open Sans" font-weight="normal" transform="matrix(1,0,0,1,0,-9.9)"><tspan dy="0" >Reads from</tspan></text></g><g id="v-1033"  label-idx="1" cursor="move" transform="matrix(1,0,0,1,3079,850)" style="cursor: default; opacity: 1;"><rect joint-selector="rect" id="v-1037" fill="#ffffff" rx="3" ry="3"  width="0" height="0" transform="matrix(1,0,0,1,0,0)" display="none"></rect><text joint-selector="text" id="v-1036" fill="#000000" font-size="14" text-anchor="middle" pointer-events="none"></text></g></g><g  display="none"></g><g  id="v-1042" display="none"><g  id="v-1030"><path  end="source" d="M 26 0 L 0 13 L 26 26 z"></path></g><g  id="v-1031"><path  end="target" d="M 26 0 L 0 13 L 26 26 z"></path></g></g><g  id="v-1041" display="none"><g  id="v-1028" transform="translate(3076.235613149577, 409.98091119702747) "><g  event="remove"><circle r="11"></circle><path transform="scale(.8) translate(-16, -16)" d="M24.778,21.419 19.276,15.917 24.777,10.415 21.949,7.585 16.447,13.087 10.945,7.585 8.117,10.415 13.618,15.917 8.116,21.419 10.946,24.248 16.447,18.746 21.948,24.248z"></path><title>Remove link.</title></g><g  event="link:options"><circle r="11" transform="translate(25)"></circle><path fill="white" transform="scale(.55) translate(29, -16)" d="M31.229,17.736c0.064-0.571,0.104-1.148,0.104-1.736s-0.04-1.166-0.104-1.737l-4.377-1.557c-0.218-0.716-0.504-1.401-0.851-2.05l1.993-4.192c-0.725-0.91-1.549-1.734-2.458-2.459l-4.193,1.994c-0.647-0.347-1.334-0.632-2.049-0.849l-1.558-4.378C17.165,0.708,16.588,0.667,16,0.667s-1.166,0.041-1.737,0.105L12.707,5.15c-0.716,0.217-1.401,0.502-2.05,0.849L6.464,4.005C5.554,4.73,4.73,5.554,4.005,6.464l1.994,4.192c-0.347,0.648-0.632,1.334-0.849,2.05l-4.378,1.557C0.708,14.834,0.667,15.412,0.667,16s0.041,1.165,0.105,1.736l4.378,1.558c0.217,0.715,0.502,1.401,0.849,2.049l-1.994,4.193c0.725,0.909,1.549,1.733,2.459,2.458l4.192-1.993c0.648,0.347,1.334,0.633,2.05,0.851l1.557,4.377c0.571,0.064,1.148,0.104,1.737,0.104c0.588,0,1.165-0.04,1.736-0.104l1.558-4.377c0.715-0.218,1.399-0.504,2.049-0.851l4.193,1.993c0.909-0.725,1.733-1.549,2.458-2.458l-1.993-4.193c0.347-0.647,0.633-1.334,0.851-2.049L31.229,17.736zM16,20.871c-2.69,0-4.872-2.182-4.872-4.871c0-2.69,2.182-4.872,4.872-4.872c2.689,0,4.871,2.182,4.871,4.872C20.871,18.689,18.689,20.871,16,20.871z"></path><title>Link options.</title></g></g></g></g><g   id="j_87" ><path  stroke="#707070" d="M 1692 1284 L 1978 829 C 1981.3333333333333 823.6666666666665 1986 819.6666666666665 1992 817 L 2120 766" id="v-1053" stroke-width="2" stroke-dasharray="30 30" fill="none" style="opacity: 1;"></path><path  fill="black" stroke="black" d="M 0 0 0 0" transform="matrix(0.5318588197986455,-0.8468330389175849,0.8468330389175849,0.5318588197986455,1692.2099609375,1284)"></path><path  fill="#707070" stroke="#707070" d="M 20 0 L 0 10 L 20 20 z" id="v-1055" transform="matrix(-0.9274225005742973,0.374015381272639,-0.374015381272639,-0.9274225005742973,2123.740208896594,775.0242445328603)" style="opacity: 1;"></path><path  d="M 1692 1284 L 1978 829 C 1981.3333333333333 823.6666666666665 1986 819.6666666666665 1992 817 L 2120 766" id="v-1054" fill="none" style="cursor: default;"></path><g ><g id="v-1047"  label-idx="0" cursor="move" transform="matrix(1,0,0,1,1876.6436767578125,990.248779296875)" style="cursor: default; opacity: 1;"><rect joint-selector="rect" id="v-1050" fill="#ffffff" rx="3" ry="3" pointer-events="none" width="0" height="0" transform="matrix(1,0,0,1,0,0)"></rect><text joint-selector="text" id="v-1049" font-size="24px" xml:space="preserve" display="none" y="0.8em" fill="#707070" text-anchor="middle" pointer-events="none" font-family="Open Sans" font-weight="normal"><tspan dy="0" style="fill-opacity: 0; stroke-opacity: 0;" >-</tspan></text></g><g id="v-1048"  label-idx="1" cursor="move" transform="matrix(1,0,0,1,1866.6436767578125,1002.248779296875)" style="cursor: default; opacity: 1;"><rect joint-selector="rect" id="v-1052" fill="#ffffff" rx="3" ry="3"  width="0" height="0" transform="matrix(1,0,0,1,0,0)" display="none"></rect><text joint-selector="text" id="v-1051" fill="#000000" font-size="14" text-anchor="middle" pointer-events="none"></text></g></g><g  display="none"><g  transform="translate(1983, 821)" id="v-1554"><circle  idx="0" r="10"></circle><path  idx="0" d="M16,5.333c-7.732,0-14,4.701-14,10.5c0,1.982,0.741,3.833,2.016,5.414L2,25.667l5.613-1.441c2.339,1.317,5.237,2.107,8.387,2.107c7.732,0,14-4.701,14-10.5C30,10.034,23.732,5.333,16,5.333z" transform="translate(5, -33)"></path><path  idx="0" transform="scale(.8) translate(9.5, -37)" d="M24.778,21.419 19.276,15.917 24.777,10.415 21.949,7.585 16.447,13.087 10.945,7.585 8.117,10.415 13.618,15.917 8.116,21.419 10.946,24.248 16.447,18.746 21.948,24.248z"><title>Remove vertex.</title></path></g></g><g  id="v-1057" display="none"><g  id="v-1045"><path  end="source" d="M 26 0 L 0 13 L 26 26 z"></path></g><g  id="v-1046"><path  end="target" d="M 26 0 L 0 13 L 26 26 z"></path></g></g><g  id="v-1056" display="none"><g  id="v-1043" transform="translate(1713.2868618087339, 1250.1345380315597) "><g  event="remove"><circle r="11"></circle><path transform="scale(.8) translate(-16, -16)" d="M24.778,21.419 19.276,15.917 24.777,10.415 21.949,7.585 16.447,13.087 10.945,7.585 8.117,10.415 13.618,15.917 8.116,21.419 10.946,24.248 16.447,18.746 21.948,24.248z"></path><title>Remove link.</title></g><g  event="link:options"><circle r="11" transform="translate(25)"></circle><path fill="white" transform="scale(.55) translate(29, -16)" d="M31.229,17.736c0.064-0.571,0.104-1.148,0.104-1.736s-0.04-1.166-0.104-1.737l-4.377-1.557c-0.218-0.716-0.504-1.401-0.851-2.05l1.993-4.192c-0.725-0.91-1.549-1.734-2.458-2.459l-4.193,1.994c-0.647-0.347-1.334-0.632-2.049-0.849l-1.558-4.378C17.165,0.708,16.588,0.667,16,0.667s-1.166,0.041-1.737,0.105L12.707,5.15c-0.716,0.217-1.401,0.502-2.05,0.849L6.464,4.005C5.554,4.73,4.73,5.554,4.005,6.464l1.994,4.192c-0.347,0.648-0.632,1.334-0.849,2.05l-4.378,1.557C0.708,14.834,0.667,15.412,0.667,16s0.041,1.165,0.105,1.736l4.378,1.558c0.217,0.715,0.502,1.401,0.849,2.049l-1.994,4.193c0.725,0.909,1.549,1.733,2.459,2.458l4.192-1.993c0.648,0.347,1.334,0.633,2.05,0.851l1.557,4.377c0.571,0.064,1.148,0.104,1.737,0.104c0.588,0,1.165-0.04,1.736-0.104l1.558-4.377c0.715-0.218,1.399-0.504,2.049-0.851l4.193,1.993c0.909-0.725,1.733-1.549,2.458-2.458l-1.993-4.193c0.347-0.647,0.633-1.334,0.851-2.049L31.229,17.736zM16,20.871c-2.69,0-4.872-2.182-4.872-4.871c0-2.69,2.182-4.872,4.872-4.872c2.689,0,4.871,2.182,4.871,4.872C20.871,18.689,18.689,20.871,16,20.871z"></path><title>Link options.</title></g></g></g></g><g   id="j_88" ><path  stroke="#707070" d="M 2575 1696 L 2883 1540" id="v-1068" stroke-width="2" stroke-dasharray="30 30" fill="none" style="opacity: 1;"></path><path  fill="black" stroke="black" d="M 0 0 0 0" transform="matrix(0.8920514314967957,-0.45193389291412706,0.45193389291412706,0.8920514314967957,2575,1696.02001953125)"></path><path  fill="#707070" stroke="#707070" d="M 20 0 L 0 10 L 20 20 z" id="v-1070" transform="matrix(-0.8920513111394883,0.45193413048177694,-0.45193413048177694,-0.8920513111394883,2887.5194442599627,1548.9005614550147)" style="opacity: 1;"></path><path  d="M 2575 1696 L 2883 1540" id="v-1069" fill="none" style="cursor: default;"></path><g ><g id="v-1062"  label-idx="0" cursor="move" transform="matrix(1,0,0,1,2729,1618)" style="cursor: default; opacity: 1;"><rect joint-selector="rect" id="v-1065" fill="#ffffff" rx="3" ry="3" pointer-events="none" width="0" height="0" transform="matrix(1,0,0,1,0,0)"></rect><text joint-selector="text" id="v-1064" font-size="24px" xml:space="preserve" display="none" y="0.8em" fill="#707070" text-anchor="middle" pointer-events="none" font-family="Open Sans" font-weight="normal"><tspan dy="0" style="fill-opacity: 0; stroke-opacity: 0;" >-</tspan></text></g><g id="v-1063"  label-idx="1" cursor="move" transform="matrix(1,0,0,1,2719,1630)" style="cursor: default; opacity: 1;"><rect joint-selector="rect" id="v-1067" fill="#ffffff" rx="3" ry="3"  width="0" height="0" transform="matrix(1,0,0,1,0,0)" display="none"></rect><text joint-selector="text" id="v-1066" fill="#000000" font-size="14" text-anchor="middle" pointer-events="none"></text></g></g><g  display="none"></g><g  id="v-1072" display="none"><g  id="v-1060"><path  end="source" d="M 26 0 L 0 13 L 26 26 z"></path></g><g  id="v-1061"><path  end="target" d="M 26 0 L 0 13 L 26 26 z"></path></g></g><g  id="v-1071" display="none"><g  id="v-1058" transform="translate(2610.683921895991, 1677.926325273459) "><g  event="remove"><circle r="11"></circle><path transform="scale(.8) translate(-16, -16)" d="M24.778,21.419 19.276,15.917 24.777,10.415 21.949,7.585 16.447,13.087 10.945,7.585 8.117,10.415 13.618,15.917 8.116,21.419 10.946,24.248 16.447,18.746 21.948,24.248z"></path><title>Remove link.</title></g><g  event="link:options"><circle r="11" transform="translate(25)"></circle><path fill="white" transform="scale(.55) translate(29, -16)" d="M31.229,17.736c0.064-0.571,0.104-1.148,0.104-1.736s-0.04-1.166-0.104-1.737l-4.377-1.557c-0.218-0.716-0.504-1.401-0.851-2.05l1.993-4.192c-0.725-0.91-1.549-1.734-2.458-2.459l-4.193,1.994c-0.647-0.347-1.334-0.632-2.049-0.849l-1.558-4.378C17.165,0.708,16.588,0.667,16,0.667s-1.166,0.041-1.737,0.105L12.707,5.15c-0.716,0.217-1.401,0.502-2.05,0.849L6.464,4.005C5.554,4.73,4.73,5.554,4.005,6.464l1.994,4.192c-0.347,0.648-0.632,1.334-0.849,2.05l-4.378,1.557C0.708,14.834,0.667,15.412,0.667,16s0.041,1.165,0.105,1.736l4.378,1.558c0.217,0.715,0.502,1.401,0.849,2.049l-1.994,4.193c0.725,0.909,1.549,1.733,2.459,2.458l4.192-1.993c0.648,0.347,1.334,0.633,2.05,0.851l1.557,4.377c0.571,0.064,1.148,0.104,1.737,0.104c0.588,0,1.165-0.04,1.736-0.104l1.558-4.377c0.715-0.218,1.399-0.504,2.049-0.851l4.193,1.993c0.909-0.725,1.733-1.549,2.458-2.458l-1.993-4.193c0.347-0.647,0.633-1.334,0.851-2.049L31.229,17.736zM16,20.871c-2.69,0-4.872-2.182-4.872-4.871c0-2.69,2.182-4.872,4.872-4.872c2.689,0,4.871,2.182,4.871,4.872C20.871,18.689,18.689,20.871,16,20.871z"></path><title>Link options.</title></g></g></g></g><g   id="j_89" ><path  stroke="#707070" d="M 2565 392 L 2739 467 C 2745 469.66666666666663 2749.333333333333 474 2752 480 L 3051 1276" id="v-1083" stroke-width="2" stroke-dasharray="30 30" fill="none" style="opacity: 1;"></path><path  fill="black" stroke="black" d="M 0 0 0 0" transform="matrix(0.9182133599201148,0.39608613414788163,-0.39608613414788163,0.9182133599201148,2565,392.05999755859375)"></path><path  fill="#707070" stroke="#707070" d="M 20 0 L 0 10 L 20 20 z" id="v-1085" transform="matrix(-0.35273827449034945,-0.9357220258760456,0.9357220258760456,-0.35273827449034945,3042.102779673643,1279.5274252692889)" style="opacity: 1;"></path><path  d="M 2565 392 L 2739 467 C 2745 469.66666666666663 2749.333333333333 474 2752 480 L 3051 1276" id="v-1084" fill="none" style="cursor: default;"></path><g ><g id="v-1077"  label-idx="0" cursor="move" transform="matrix(1,0,0,1,2864.87646484375,780.5003051757812)" style="cursor: default; opacity: 1;"><rect joint-selector="rect" id="v-1080" fill="#ffffff" rx="3" ry="3" pointer-events="none" width="0" height="0" transform="matrix(1,0,0,1,0,0)"></rect><text joint-selector="text" id="v-1079" font-size="24px" xml:space="preserve" display="none" y="0.8em" fill="#707070" text-anchor="middle" pointer-events="none" font-family="Open Sans" font-weight="normal"><tspan dy="0" style="fill-opacity: 0; stroke-opacity: 0;" >-</tspan></text></g><g id="v-1078"  label-idx="1" cursor="move" transform="matrix(1,0,0,1,2854.87646484375,792.5003051757812)" style="cursor: default; opacity: 1;"><rect joint-selector="rect" id="v-1082" fill="#ffffff" rx="3" ry="3"  width="0" height="0" transform="matrix(1,0,0,1,0,0)" display="none"></rect><text joint-selector="text" id="v-1081" fill="#000000" font-size="14" text-anchor="middle" pointer-events="none"></text></g></g><g  display="none"><g  transform="translate(2748, 471)" id="v-1555"><circle  idx="0" r="10"></circle><path  idx="0" d="M16,5.333c-7.732,0-14,4.701-14,10.5c0,1.982,0.741,3.833,2.016,5.414L2,25.667l5.613-1.441c2.339,1.317,5.237,2.107,8.387,2.107c7.732,0,14-4.701,14-10.5C30,10.034,23.732,5.333,16,5.333z" transform="translate(5, -33)"></path><path  idx="0" transform="scale(.8) translate(9.5, -37)" d="M24.778,21.419 19.276,15.917 24.777,10.415 21.949,7.585 16.447,13.087 10.945,7.585 8.117,10.415 13.618,15.917 8.116,21.419 10.946,24.248 16.447,18.746 21.948,24.248z"><title>Remove vertex.</title></path></g></g><g  id="v-1087" display="none"><g  id="v-1075"><path  end="source" d="M 26 0 L 0 13 L 26 26 z"></path></g><g  id="v-1076"><path  end="target" d="M 26 0 L 0 13 L 26 26 z"></path></g></g><g  id="v-1086" display="none"><g  id="v-1073" transform="translate(2601.7329634546604, 407.833173902871) "><g  event="remove"><circle r="11"></circle><path transform="scale(.8) translate(-16, -16)" d="M24.778,21.419 19.276,15.917 24.777,10.415 21.949,7.585 16.447,13.087 10.945,7.585 8.117,10.415 13.618,15.917 8.116,21.419 10.946,24.248 16.447,18.746 21.948,24.248z"></path><title>Remove link.</title></g><g  event="link:options"><circle r="11" transform="translate(25)"></circle><path fill="white" transform="scale(.55) translate(29, -16)" d="M31.229,17.736c0.064-0.571,0.104-1.148,0.104-1.736s-0.04-1.166-0.104-1.737l-4.377-1.557c-0.218-0.716-0.504-1.401-0.851-2.05l1.993-4.192c-0.725-0.91-1.549-1.734-2.458-2.459l-4.193,1.994c-0.647-0.347-1.334-0.632-2.049-0.849l-1.558-4.378C17.165,0.708,16.588,0.667,16,0.667s-1.166,0.041-1.737,0.105L12.707,5.15c-0.716,0.217-1.401,0.502-2.05,0.849L6.464,4.005C5.554,4.73,4.73,5.554,4.005,6.464l1.994,4.192c-0.347,0.648-0.632,1.334-0.849,2.05l-4.378,1.557C0.708,14.834,0.667,15.412,0.667,16s0.041,1.165,0.105,1.736l4.378,1.558c0.217,0.715,0.502,1.401,0.849,2.049l-1.994,4.193c0.725,0.909,1.549,1.733,2.459,2.458l4.192-1.993c0.648,0.347,1.334,0.633,2.05,0.851l1.557,4.377c0.571,0.064,1.148,0.104,1.737,0.104c0.588,0,1.165-0.04,1.736-0.104l1.558-4.377c0.715-0.218,1.399-0.504,2.049-0.851l4.193,1.993c0.909-0.725,1.733-1.549,2.458-2.458l-1.993-4.193c0.347-0.647,0.633-1.334,0.851-2.049L31.229,17.736zM16,20.871c-2.69,0-4.872-2.182-4.872-4.871c0-2.69,2.182-4.872,4.872-4.872c2.689,0,4.871,2.182,4.871,4.872C20.871,18.689,18.689,20.871,16,20.871z"></path><title>Link options.</title></g></g></g></g><g   id="j_90" ><path  stroke="#707070" d="M 1823 1547 L 2125 1698" id="v-1097" stroke-width="2" stroke-dasharray="30 30" fill="none" style="opacity: 1;"></path><path  fill="black" stroke="black" d="M 0 0 0 0" transform="matrix(0.8944271843232765,0.4472136088532364,-0.4472136088532364,0.8944271843232765,1823,1546.5)"></path><path  fill="#707070" stroke="#707070" d="M 20 0 L 0 10 L 20 20 z" id="v-1099" transform="matrix(-0.8944272140983217,-0.44721354930314333,0.44721354930314333,-0.8944272140983217,2120.5278007104516,1706.4442396652646)" style="opacity: 1;"></path><path  d="M 1823 1547 L 2125 1698" id="v-1098" fill="none" style="cursor: default;"></path><g ><g id="v-1091"  label-idx="0" cursor="move" transform="matrix(1,0,0,1,1974,1622.5)" style="cursor: default; opacity: 1;"><rect joint-selector="rect" id="v-1094" fill="#ffffff" rx="3" ry="3" pointer-events="none" width="0" height="0" transform="matrix(1,0,0,1,0,0)"></rect><text joint-selector="text" id="v-1093" font-size="24px" xml:space="preserve" display="none" y="0.8em" fill="#707070" text-anchor="middle" pointer-events="none" font-family="Open Sans" font-weight="normal"><tspan dy="0" style="fill-opacity: 0; stroke-opacity: 0;" >-</tspan></text></g><g id="v-1092"  label-idx="1" cursor="move" transform="matrix(1,0,0,1,1964,1634.5)" style="cursor: default; opacity: 1;"><rect joint-selector="rect" id="v-1096" fill="#ffffff" rx="3" ry="3"  width="0" height="0" transform="matrix(1,0,0,1,0,0)" display="none"></rect><text joint-selector="text" id="v-1095" fill="#000000" font-size="14" text-anchor="middle" pointer-events="none"></text></g></g><g  display="none"></g><g  id="v-1101" display="none"><g  id="v-1089"><path  end="source" d="M 26 0 L 0 13 L 26 26 z"></path></g><g  id="v-1090"><path  end="target" d="M 26 0 L 0 13 L 26 26 z"></path></g></g><g  id="v-1100" display="none"><g  id="v-1088" transform="translate(1858.7770876399966, 1564.8885438199984) "><g  event="remove"><circle r="11"></circle><path transform="scale(.8) translate(-16, -16)" d="M24.778,21.419 19.276,15.917 24.777,10.415 21.949,7.585 16.447,13.087 10.945,7.585 8.117,10.415 13.618,15.917 8.116,21.419 10.946,24.248 16.447,18.746 21.948,24.248z"></path><title>Remove link.</title></g><g  event="link:options"><circle r="11" transform="translate(25)"></circle><path fill="white" transform="scale(.55) translate(29, -16)" d="M31.229,17.736c0.064-0.571,0.104-1.148,0.104-1.736s-0.04-1.166-0.104-1.737l-4.377-1.557c-0.218-0.716-0.504-1.401-0.851-2.05l1.993-4.192c-0.725-0.91-1.549-1.734-2.458-2.459l-4.193,1.994c-0.647-0.347-1.334-0.632-2.049-0.849l-1.558-4.378C17.165,0.708,16.588,0.667,16,0.667s-1.166,0.041-1.737,0.105L12.707,5.15c-0.716,0.217-1.401,0.502-2.05,0.849L6.464,4.005C5.554,4.73,4.73,5.554,4.005,6.464l1.994,4.192c-0.347,0.648-0.632,1.334-0.849,2.05l-4.378,1.557C0.708,14.834,0.667,15.412,0.667,16s0.041,1.165,0.105,1.736l4.378,1.558c0.217,0.715,0.502,1.401,0.849,2.049l-1.994,4.193c0.725,0.909,1.549,1.733,2.459,2.458l4.192-1.993c0.648,0.347,1.334,0.633,2.05,0.851l1.557,4.377c0.571,0.064,1.148,0.104,1.737,0.104c0.588,0,1.165-0.04,1.736-0.104l1.558-4.377c0.715-0.218,1.399-0.504,2.049-0.851l4.193,1.993c0.909-0.725,1.733-1.549,2.458-2.458l-1.993-4.193c0.347-0.647,0.633-1.334,0.851-2.049L31.229,17.736zM16,20.871c-2.69,0-4.872-2.182-4.872-4.871c0-2.69,2.182-4.872,4.872-4.872c2.689,0,4.871,2.182,4.871,4.872C20.871,18.689,18.689,20.871,16,20.871z"></path><title>Link options.</title></g></g></g></g><g   id="j_91" ><path  stroke="#707070" d="M 1647 1284 L 1885 556 C 1886.9999999999998 549.3333333333333 1890.9999999999998 544.3333333333333 1897 541 L 2115 420" id="v-1112" stroke-width="2" stroke-dasharray="30 30" fill="none" style="opacity: 1;"></path><path  fill="black" stroke="black" d="M 0 0 0 0" transform="matrix(0.3104370528191124,-0.9505939386704418,0.9505939386704418,0.3104370528191124,1646.989990234375,1284)"></path><path  fill="#707070" stroke="#707070" d="M 20 0 L 0 10 L 20 20 z" id="v-1114" transform="matrix(-0.8742408823685743,0.4854924094107101,-0.4854924094107101,-0.8742408823685743,2119.8549012771678,428.68240660457866)" style="opacity: 1;"></path><path  d="M 1647 1284 L 1885 556 C 1886.9999999999998 549.3333333333333 1890.9999999999998 544.3333333333333 1897 541 L 2115 420" id="v-1113" fill="none" style="cursor: default;"></path><g ><g id="v-1106"  label-idx="0" cursor="move" transform="matrix(1,0,0,1,1807.8026123046875,792.133056640625)" style="cursor: default; opacity: 1;"><rect joint-selector="rect" id="v-1109" fill="#ffffff" rx="3" ry="3" pointer-events="none" width="0" height="0" transform="matrix(1,0,0,1,0,0)"></rect><text joint-selector="text" id="v-1108" font-size="24px" xml:space="preserve" display="none" y="0.8em" fill="#707070" text-anchor="middle" pointer-events="none" font-family="Open Sans" font-weight="normal"><tspan dy="0" style="fill-opacity: 0; stroke-opacity: 0;" >-</tspan></text></g><g id="v-1107"  label-idx="1" cursor="move" transform="matrix(1,0,0,1,1797.8026123046875,804.133056640625)" style="cursor: default; opacity: 1;"><rect joint-selector="rect" id="v-1111" fill="#ffffff" rx="3" ry="3"  width="0" height="0" transform="matrix(1,0,0,1,0,0)" display="none"></rect><text joint-selector="text" id="v-1110" fill="#000000" font-size="14" text-anchor="middle" pointer-events="none"></text></g></g><g  display="none"><g  transform="translate(1888, 546)" id="v-1556"><circle  idx="0" r="10"></circle><path  idx="0" d="M16,5.333c-7.732,0-14,4.701-14,10.5c0,1.982,0.741,3.833,2.016,5.414L2,25.667l5.613-1.441c2.339,1.317,5.237,2.107,8.387,2.107c7.732,0,14-4.701,14-10.5C30,10.034,23.732,5.333,16,5.333z" transform="translate(5, -33)"></path><path  idx="0" transform="scale(.8) translate(9.5, -37)" d="M24.778,21.419 19.276,15.917 24.777,10.415 21.949,7.585 16.447,13.087 10.945,7.585 8.117,10.415 13.618,15.917 8.116,21.419 10.946,24.248 16.447,18.746 21.948,24.248z"><title>Remove vertex.</title></path></g></g><g  id="v-1116" display="none"><g  id="v-1104"><path  end="source" d="M 26 0 L 0 13 L 26 26 z"></path></g><g  id="v-1105"><path  end="target" d="M 26 0 L 0 13 L 26 26 z"></path></g></g><g  id="v-1115" display="none"><g  id="v-1102" transform="translate(1659.4295542522968, 1245.9801869929743) "><g  event="remove"><circle r="11"></circle><path transform="scale(.8) translate(-16, -16)" d="M24.778,21.419 19.276,15.917 24.777,10.415 21.949,7.585 16.447,13.087 10.945,7.585 8.117,10.415 13.618,15.917 8.116,21.419 10.946,24.248 16.447,18.746 21.948,24.248z"></path><title>Remove link.</title></g><g  event="link:options"><circle r="11" transform="translate(25)"></circle><path fill="white" transform="scale(.55) translate(29, -16)" d="M31.229,17.736c0.064-0.571,0.104-1.148,0.104-1.736s-0.04-1.166-0.104-1.737l-4.377-1.557c-0.218-0.716-0.504-1.401-0.851-2.05l1.993-4.192c-0.725-0.91-1.549-1.734-2.458-2.459l-4.193,1.994c-0.647-0.347-1.334-0.632-2.049-0.849l-1.558-4.378C17.165,0.708,16.588,0.667,16,0.667s-1.166,0.041-1.737,0.105L12.707,5.15c-0.716,0.217-1.401,0.502-2.05,0.849L6.464,4.005C5.554,4.73,4.73,5.554,4.005,6.464l1.994,4.192c-0.347,0.648-0.632,1.334-0.849,2.05l-4.378,1.557C0.708,14.834,0.667,15.412,0.667,16s0.041,1.165,0.105,1.736l4.378,1.558c0.217,0.715,0.502,1.401,0.849,2.049l-1.994,4.193c0.725,0.909,1.549,1.733,2.459,2.458l4.192-1.993c0.648,0.347,1.334,0.633,2.05,0.851l1.557,4.377c0.571,0.064,1.148,0.104,1.737,0.104c0.588,0,1.165-0.04,1.736-0.104l1.558-4.377c0.715-0.218,1.399-0.504,2.049-0.851l4.193,1.993c0.909-0.725,1.733-1.549,2.458-2.458l-1.993-4.193c0.347-0.647,0.633-1.334,0.851-2.049L31.229,17.736zM16,20.871c-2.69,0-4.872-2.182-4.872-4.871c0-2.69,2.182-4.872,4.872-4.872c2.689,0,4.871,2.182,4.871,4.872C20.871,18.689,18.689,20.871,16,20.871z"></path><title>Link options.</title></g></g></g></g><g   id="j_92" ><path  stroke="#707070" d="M 2573 1432 L 2883 1428" id="v-1126" stroke-width="2" stroke-dasharray="30 30" fill="none" style="opacity: 1;"></path><path  fill="black" stroke="black" d="M 0 0 0 0" transform="matrix(0.9999447099276078,-0.010515564073900738,0.010515564073900738,0.9999447099276078,2573,1431.6300048828125)"></path><path  fill="#707070" stroke="#707070" d="M 20 0 L 0 10 L 20 20 z" id="v-1128" transform="matrix(-0.9999447099276078,0.01051556407390106,-0.01051556407390106,-0.9999447099276078,2883.1050910212653,1438.369389114787)" style="opacity: 1;"></path><path  d="M 2573 1432 L 2883 1428" id="v-1127" fill="none" style="cursor: default;"></path><g ><g id="v-1120"  label-idx="0" cursor="move" transform="matrix(1,0,0,1,2728,1430)" style="cursor: default; opacity: 1;"><rect joint-selector="rect" id="v-1123" fill="#ffffff" rx="3" ry="3" pointer-events="none" width="0" height="0" transform="matrix(1,0,0,1,0,0)"></rect><text joint-selector="text" id="v-1122" font-size="24px" xml:space="preserve" display="none" y="0.8em" fill="#707070" text-anchor="middle" pointer-events="none" font-family="Open Sans" font-weight="normal"><tspan dy="0" style="fill-opacity: 0; stroke-opacity: 0;" >-</tspan></text></g><g id="v-1121"  label-idx="1" cursor="move" transform="matrix(1,0,0,1,2718,1442)" style="cursor: default; opacity: 1;"><rect joint-selector="rect" id="v-1125" fill="#ffffff" rx="3" ry="3"  width="0" height="0" transform="matrix(1,0,0,1,0,0)" display="none"></rect><text joint-selector="text" id="v-1124" fill="#000000" font-size="14" text-anchor="middle" pointer-events="none"></text></g></g><g  display="none"></g><g  id="v-1130" display="none"><g  id="v-1118"><path  end="source" d="M 26 0 L 0 13 L 26 26 z"></path></g><g  id="v-1119"><path  end="target" d="M 26 0 L 0 13 L 26 26 z"></path></g></g><g  id="v-1129" display="none"><g  id="v-1117" transform="translate(2612.9966705510183, 1431.483913928374) "><g  event="remove"><circle r="11"></circle><path transform="scale(.8) translate(-16, -16)" d="M24.778,21.419 19.276,15.917 24.777,10.415 21.949,7.585 16.447,13.087 10.945,7.585 8.117,10.415 13.618,15.917 8.116,21.419 10.946,24.248 16.447,18.746 21.948,24.248z"></path><title>Remove link.</title></g><g  event="link:options"><circle r="11" transform="translate(25)"></circle><path fill="white" transform="scale(.55) translate(29, -16)" d="M31.229,17.736c0.064-0.571,0.104-1.148,0.104-1.736s-0.04-1.166-0.104-1.737l-4.377-1.557c-0.218-0.716-0.504-1.401-0.851-2.05l1.993-4.192c-0.725-0.91-1.549-1.734-2.458-2.459l-4.193,1.994c-0.647-0.347-1.334-0.632-2.049-0.849l-1.558-4.378C17.165,0.708,16.588,0.667,16,0.667s-1.166,0.041-1.737,0.105L12.707,5.15c-0.716,0.217-1.401,0.502-2.05,0.849L6.464,4.005C5.554,4.73,4.73,5.554,4.005,6.464l1.994,4.192c-0.347,0.648-0.632,1.334-0.849,2.05l-4.378,1.557C0.708,14.834,0.667,15.412,0.667,16s0.041,1.165,0.105,1.736l4.378,1.558c0.217,0.715,0.502,1.401,0.849,2.049l-1.994,4.193c0.725,0.909,1.549,1.733,2.459,2.458l4.192-1.993c0.648,0.347,1.334,0.633,2.05,0.851l1.557,4.377c0.571,0.064,1.148,0.104,1.737,0.104c0.588,0,1.165-0.04,1.736-0.104l1.558-4.377c0.715-0.218,1.399-0.504,2.049-0.851l4.193,1.993c0.909-0.725,1.733-1.549,2.458-2.458l-1.993-4.193c0.347-0.647,0.633-1.334,0.851-2.049L31.229,17.736zM16,20.871c-2.69,0-4.872-2.182-4.872-4.871c0-2.69,2.182-4.872,4.872-4.872c2.689,0,4.871,2.182,4.871,4.872C20.871,18.689,18.689,20.871,16,20.871z"></path><title>Link options.</title></g></g></g></g><g   id="j_93" ><path  stroke="#707070" d="M 2555 2416 L 2740 2301 C 2745.333333333333 2297.6666666666665 2749.333333333333 2293 2752 2287 L 3046 1576" id="v-1141" stroke-width="2" stroke-dasharray="30 30" fill="none" style="opacity: 1;"></path><path  fill="black" stroke="black" d="M 0 0 0 0" transform="matrix(0.8500406867268153,-0.5267170311552535,0.5267170311552535,0.8500406867268153,2555,2415.590087890625)"></path><path  fill="#707070" stroke="#707070" d="M 20 0 L 0 10 L 20 20 z" id="v-1143" transform="matrix(-0.38235063303476907,0.924017312293396,-0.924017312293396,-0.38235063303476907,3055.1701247657816,1579.8234455121012)" style="opacity: 1;"></path><path  d="M 2555 2416 L 2740 2301 C 2745.333333333333 2297.6666666666665 2749.333333333333 2293 2752 2287 L 3046 1576" id="v-1142" fill="none" style="cursor: default;"></path><g ><g id="v-1135"  label-idx="0" cursor="move" transform="matrix(1,0,0,1,2853.8046875,2040.7987060546875)" style="cursor: default; opacity: 1;"><rect joint-selector="rect" id="v-1138" fill="#ffffff" rx="3" ry="3" pointer-events="none" width="0" height="0" transform="matrix(1,0,0,1,0,0)"></rect><text joint-selector="text" id="v-1137" font-size="24px" xml:space="preserve" display="none" y="0.8em" fill="#707070" text-anchor="middle" pointer-events="none" font-family="Open Sans" font-weight="normal"><tspan dy="0" style="fill-opacity: 0; stroke-opacity: 0;" >-</tspan></text></g><g id="v-1136"  label-idx="1" cursor="move" transform="matrix(1,0,0,1,2843.8046875,2052.798828125)" style="cursor: default; opacity: 1;"><rect joint-selector="rect" id="v-1140" fill="#ffffff" rx="3" ry="3"  width="0" height="0" transform="matrix(1,0,0,1,0,0)" display="none"></rect><text joint-selector="text" id="v-1139" fill="#000000" font-size="14" text-anchor="middle" pointer-events="none"></text></g></g><g  display="none"><g  transform="translate(2748, 2296)" id="v-1557"><circle  idx="0" r="10"></circle><path  idx="0" d="M16,5.333c-7.732,0-14,4.701-14,10.5c0,1.982,0.741,3.833,2.016,5.414L2,25.667l5.613-1.441c2.339,1.317,5.237,2.107,8.387,2.107c7.732,0,14-4.701,14-10.5C30,10.034,23.732,5.333,16,5.333z" transform="translate(5, -33)"></path><path  idx="0" transform="scale(.8) translate(9.5, -37)" d="M24.778,21.419 19.276,15.917 24.777,10.415 21.949,7.585 16.447,13.087 10.945,7.585 8.117,10.415 13.618,15.917 8.116,21.419 10.946,24.248 16.447,18.746 21.948,24.248z"><title>Remove vertex.</title></path></g></g><g  id="v-1145" display="none"><g  id="v-1133"><path  end="source" d="M 26 0 L 0 13 L 26 26 z"></path></g><g  id="v-1134"><path  end="target" d="M 26 0 L 0 13 L 26 26 z"></path></g></g><g  id="v-1144" display="none"><g  id="v-1131" transform="translate(2588.9714130115617, 2394.882635154975) "><g  event="remove"><circle r="11"></circle><path transform="scale(.8) translate(-16, -16)" d="M24.778,21.419 19.276,15.917 24.777,10.415 21.949,7.585 16.447,13.087 10.945,7.585 8.117,10.415 13.618,15.917 8.116,21.419 10.946,24.248 16.447,18.746 21.948,24.248z"></path><title>Remove link.</title></g><g  event="link:options"><circle r="11" transform="translate(25)"></circle><path fill="white" transform="scale(.55) translate(29, -16)" d="M31.229,17.736c0.064-0.571,0.104-1.148,0.104-1.736s-0.04-1.166-0.104-1.737l-4.377-1.557c-0.218-0.716-0.504-1.401-0.851-2.05l1.993-4.192c-0.725-0.91-1.549-1.734-2.458-2.459l-4.193,1.994c-0.647-0.347-1.334-0.632-2.049-0.849l-1.558-4.378C17.165,0.708,16.588,0.667,16,0.667s-1.166,0.041-1.737,0.105L12.707,5.15c-0.716,0.217-1.401,0.502-2.05,0.849L6.464,4.005C5.554,4.73,4.73,5.554,4.005,6.464l1.994,4.192c-0.347,0.648-0.632,1.334-0.849,2.05l-4.378,1.557C0.708,14.834,0.667,15.412,0.667,16s0.041,1.165,0.105,1.736l4.378,1.558c0.217,0.715,0.502,1.401,0.849,2.049l-1.994,4.193c0.725,0.909,1.549,1.733,2.459,2.458l4.192-1.993c0.648,0.347,1.334,0.633,2.05,0.851l1.557,4.377c0.571,0.064,1.148,0.104,1.737,0.104c0.588,0,1.165-0.04,1.736-0.104l1.558-4.377c0.715-0.218,1.399-0.504,2.049-0.851l4.193,1.993c0.909-0.725,1.733-1.549,2.458-2.458l-1.993-4.193c0.347-0.647,0.633-1.334,0.851-2.049L31.229,17.736zM16,20.871c-2.69,0-4.872-2.182-4.872-4.871c0-2.69,2.182-4.872,4.872-4.872c2.689,0,4.871,2.182,4.871,4.872C20.871,18.689,18.689,20.871,16,20.871z"></path><title>Link options.</title></g></g></g></g><g   id="j_94" ><path  stroke="#707070" d="M 1676 1584 L 1913 2037 C 1916.333333333333 2043 1921.333333333333 2047 1928 2049 L 2120 2109" id="v-1156" stroke-width="2" stroke-dasharray="30 30" fill="none" style="opacity: 1;"></path><path  fill="black" stroke="black" d="M 0 0 0 0" transform="matrix(0.4633596740996336,0.886170306666998,-0.886170306666998,0.4633596740996336,1676.4300537109375,1584)"></path><path  fill="#707070" stroke="#707070" d="M 20 0 L 0 10 L 20 20 z" id="v-1158" transform="matrix(-0.9541229781855047,-0.2994150004565951,0.2994150004565951,-0.9541229781855047,2117.005820011664,2118.931131739546)" style="opacity: 1;"></path><path  d="M 1676 1584 L 1913 2037 C 1916.333333333333 2043 1921.333333333333 2047 1928 2049 L 2120 2109" id="v-1157" fill="none" style="cursor: default;"></path><g ><g id="v-1150"  label-idx="0" cursor="move" transform="matrix(1,0,0,1,1845.6966552734375,1908.35693359375)" style="cursor: default; opacity: 1;"><rect joint-selector="rect" id="v-1153" fill="#ffffff" rx="3" ry="3" pointer-events="none" width="0" height="0" transform="matrix(1,0,0,1,0,0)"></rect><text joint-selector="text" id="v-1152" font-size="24px" xml:space="preserve" display="none" y="0.8em" fill="#707070" text-anchor="middle" pointer-events="none" font-family="Open Sans" font-weight="normal"><tspan dy="0" style="fill-opacity: 0; stroke-opacity: 0;" >-</tspan></text></g><g id="v-1151"  label-idx="1" cursor="move" transform="matrix(1,0,0,1,1835.6966552734375,1920.35693359375)" style="cursor: default; opacity: 1;"><rect joint-selector="rect" id="v-1155" fill="#ffffff" rx="3" ry="3"  width="0" height="0" transform="matrix(1,0,0,1,0,0)" display="none"></rect><text joint-selector="text" id="v-1154" fill="#000000" font-size="14" text-anchor="middle" pointer-events="none"></text></g></g><g  display="none"><g  transform="translate(1918, 2046)" id="v-1558"><circle  idx="0" r="10"></circle><path  idx="0" d="M16,5.333c-7.732,0-14,4.701-14,10.5c0,1.982,0.741,3.833,2.016,5.414L2,25.667l5.613-1.441c2.339,1.317,5.237,2.107,8.387,2.107c7.732,0,14-4.701,14-10.5C30,10.034,23.732,5.333,16,5.333z" transform="translate(5, -33)"></path><path  idx="0" transform="scale(.8) translate(9.5, -37)" d="M24.778,21.419 19.276,15.917 24.777,10.415 21.949,7.585 16.447,13.087 10.945,7.585 8.117,10.415 13.618,15.917 8.116,21.419 10.946,24.248 16.447,18.746 21.948,24.248z"><title>Remove vertex.</title></path></g></g><g  id="v-1160" display="none"><g  id="v-1148"><path  end="source" d="M 26 0 L 0 13 L 26 26 z"></path></g><g  id="v-1149"><path  end="target" d="M 26 0 L 0 13 L 26 26 z"></path></g></g><g  id="v-1159" display="none"><g  id="v-1146" transform="translate(1694.5427362961307, 1619.4424453255156) "><g  event="remove"><circle r="11"></circle><path transform="scale(.8) translate(-16, -16)" d="M24.778,21.419 19.276,15.917 24.777,10.415 21.949,7.585 16.447,13.087 10.945,7.585 8.117,10.415 13.618,15.917 8.116,21.419 10.946,24.248 16.447,18.746 21.948,24.248z"></path><title>Remove link.</title></g><g  event="link:options"><circle r="11" transform="translate(25)"></circle><path fill="white" transform="scale(.55) translate(29, -16)" d="M31.229,17.736c0.064-0.571,0.104-1.148,0.104-1.736s-0.04-1.166-0.104-1.737l-4.377-1.557c-0.218-0.716-0.504-1.401-0.851-2.05l1.993-4.192c-0.725-0.91-1.549-1.734-2.458-2.459l-4.193,1.994c-0.647-0.347-1.334-0.632-2.049-0.849l-1.558-4.378C17.165,0.708,16.588,0.667,16,0.667s-1.166,0.041-1.737,0.105L12.707,5.15c-0.716,0.217-1.401,0.502-2.05,0.849L6.464,4.005C5.554,4.73,4.73,5.554,4.005,6.464l1.994,4.192c-0.347,0.648-0.632,1.334-0.849,2.05l-4.378,1.557C0.708,14.834,0.667,15.412,0.667,16s0.041,1.165,0.105,1.736l4.378,1.558c0.217,0.715,0.502,1.401,0.849,2.049l-1.994,4.193c0.725,0.909,1.549,1.733,2.459,2.458l4.192-1.993c0.648,0.347,1.334,0.633,2.05,0.851l1.557,4.377c0.571,0.064,1.148,0.104,1.737,0.104c0.588,0,1.165-0.04,1.736-0.104l1.558-4.377c0.715-0.218,1.399-0.504,2.049-0.851l4.193,1.993c0.909-0.725,1.733-1.549,2.458-2.458l-1.993-4.193c0.347-0.647,0.633-1.334,0.851-2.049L31.229,17.736zM16,20.871c-2.69,0-4.872-2.182-4.872-4.871c0-2.69,2.182-4.872,4.872-4.872c2.689,0,4.871,2.182,4.871,4.872C20.871,18.689,18.689,20.871,16,20.871z"></path><title>Link options.</title></g></g></g></g><g   id="j_95" ><path  stroke="#707070" d="M 1823 1434 L 2123 1434" id="v-1170" stroke-width="2" stroke-dasharray="30 30" fill="none" style="opacity: 1;"></path><path  fill="black" stroke="black" d="M 0 0 0 0" transform="matrix(1,0,0,1,1823,1434)"></path><path  fill="#707070" stroke="#707070" d="M 20 0 L 0 10 L 20 20 z" id="v-1172" transform="matrix(-1,1.2246467991473532e-16,-1.2246467991473532e-16,-1,2123,1444)" style="opacity: 1;"></path><path  d="M 1823 1434 L 2123 1434" id="v-1171" fill="none" style="cursor: default;"></path><g ><g id="v-1164"  label-idx="0" cursor="move" transform="matrix(1,0,0,1,1973,1434)" style="cursor: default; opacity: 1;"><rect joint-selector="rect" id="v-1167" fill="#ffffff" rx="3" ry="3" pointer-events="none" width="0" height="0" transform="matrix(1,0,0,1,0,0)"></rect><text joint-selector="text" id="v-1166" font-size="24px" xml:space="preserve" display="none" y="0.8em" fill="#707070" text-anchor="middle" pointer-events="none" font-family="Open Sans" font-weight="normal"><tspan dy="0" style="fill-opacity: 0; stroke-opacity: 0;" >-</tspan></text></g><g id="v-1165"  label-idx="1" cursor="move" transform="matrix(1,0,0,1,1963,1446)" style="cursor: default; opacity: 1;"><rect joint-selector="rect" id="v-1169" fill="#ffffff" rx="3" ry="3"  width="0" height="0" transform="matrix(1,0,0,1,0,0)" display="none"></rect><text joint-selector="text" id="v-1168" fill="#000000" font-size="14" text-anchor="middle" pointer-events="none"></text></g></g><g  display="none"></g><g  id="v-1174" display="none"><g  id="v-1162"><path  end="source" d="M 26 0 L 0 13 L 26 26 z"></path></g><g  id="v-1163"><path  end="target" d="M 26 0 L 0 13 L 26 26 z"></path></g></g><g  id="v-1173" display="none"><g  id="v-1161" transform="translate(1863, 1434) "><g  event="remove"><circle r="11"></circle><path transform="scale(.8) translate(-16, -16)" d="M24.778,21.419 19.276,15.917 24.777,10.415 21.949,7.585 16.447,13.087 10.945,7.585 8.117,10.415 13.618,15.917 8.116,21.419 10.946,24.248 16.447,18.746 21.948,24.248z"></path><title>Remove link.</title></g><g  event="link:options"><circle r="11" transform="translate(25)"></circle><path fill="white" transform="scale(.55) translate(29, -16)" d="M31.229,17.736c0.064-0.571,0.104-1.148,0.104-1.736s-0.04-1.166-0.104-1.737l-4.377-1.557c-0.218-0.716-0.504-1.401-0.851-2.05l1.993-4.192c-0.725-0.91-1.549-1.734-2.458-2.459l-4.193,1.994c-0.647-0.347-1.334-0.632-2.049-0.849l-1.558-4.378C17.165,0.708,16.588,0.667,16,0.667s-1.166,0.041-1.737,0.105L12.707,5.15c-0.716,0.217-1.401,0.502-2.05,0.849L6.464,4.005C5.554,4.73,4.73,5.554,4.005,6.464l1.994,4.192c-0.347,0.648-0.632,1.334-0.849,2.05l-4.378,1.557C0.708,14.834,0.667,15.412,0.667,16s0.041,1.165,0.105,1.736l4.378,1.558c0.217,0.715,0.502,1.401,0.849,2.049l-1.994,4.193c0.725,0.909,1.549,1.733,2.459,2.458l4.192-1.993c0.648,0.347,1.334,0.633,2.05,0.851l1.557,4.377c0.571,0.064,1.148,0.104,1.737,0.104c0.588,0,1.165-0.04,1.736-0.104l1.558-4.377c0.715-0.218,1.399-0.504,2.049-0.851l4.193,1.993c0.909-0.725,1.733-1.549,2.458-2.458l-1.993-4.193c0.347-0.647,0.633-1.334,0.851-2.049L31.229,17.736zM16,20.871c-2.69,0-4.872-2.182-4.872-4.871c0-2.69,2.182-4.872,4.872-4.872c2.689,0,4.871,2.182,4.871,4.872C20.871,18.689,18.689,20.871,16,20.871z"></path><title>Link options.</title></g></g></g></g><g   id="j_96" ><path  stroke="#707070" d="M 2570 2078 L 2654 2040 C 2660 2037.3333333333333 2665 2033.3333333333333 2669 2028 L 2999 1576" id="v-1185" stroke-width="2" stroke-dasharray="30 30" fill="none" style="opacity: 1;"></path><path  fill="black" stroke="black" d="M 0 0 0 0" transform="matrix(0.9109660137760579,-0.41248141987847037,0.41248141987847037,0.9109660137760579,2570,2078.110107421875)"></path><path  fill="#707070" stroke="#707070" d="M 20 0 L 0 10 L 20 20 z" id="v-1187" transform="matrix(-0.5893479202857769,0.8078793405297784,-0.8078793405297784,-0.5893479202857769,3006.6487862800304,1581.8934211491226)" style="opacity: 1;"></path><path  d="M 2570 2078 L 2654 2040 C 2660 2037.3333333333333 2665 2033.3333333333333 2669 2028 L 2999 1576" id="v-1186" fill="none" style="cursor: default;"></path><g ><g id="v-1179"  label-idx="0" cursor="move" transform="matrix(1,0,0,1,2801.09228515625,1847.073486328125)" style="cursor: default; opacity: 1;"><rect joint-selector="rect" id="v-1182" fill="#ffffff" rx="3" ry="3" pointer-events="none" width="0" height="0" transform="matrix(1,0,0,1,0,0)"></rect><text joint-selector="text" id="v-1181" font-size="24px" xml:space="preserve" display="none" y="0.8em" fill="#707070" text-anchor="middle" pointer-events="none" font-family="Open Sans" font-weight="normal"><tspan dy="0" style="fill-opacity: 0; stroke-opacity: 0;" >-</tspan></text></g><g id="v-1180"  label-idx="1" cursor="move" transform="matrix(1,0,0,1,2791.09228515625,1859.073486328125)" style="cursor: default; opacity: 1;"><rect joint-selector="rect" id="v-1184" fill="#ffffff" rx="3" ry="3"  width="0" height="0" transform="matrix(1,0,0,1,0,0)" display="none"></rect><text joint-selector="text" id="v-1183" fill="#000000" font-size="14" text-anchor="middle" pointer-events="none"></text></g></g><g  display="none"><g  transform="translate(2663, 2036)" id="v-1559"><circle  idx="0" r="10"></circle><path  idx="0" d="M16,5.333c-7.732,0-14,4.701-14,10.5c0,1.982,0.741,3.833,2.016,5.414L2,25.667l5.613-1.441c2.339,1.317,5.237,2.107,8.387,2.107c7.732,0,14-4.701,14-10.5C30,10.034,23.732,5.333,16,5.333z" transform="translate(5, -33)"></path><path  idx="0" transform="scale(.8) translate(9.5, -37)" d="M24.778,21.419 19.276,15.917 24.777,10.415 21.949,7.585 16.447,13.087 10.945,7.585 8.117,10.415 13.618,15.917 8.116,21.419 10.946,24.248 16.447,18.746 21.948,24.248z"><title>Remove vertex.</title></path></g></g><g  id="v-1189" display="none"><g  id="v-1177"><path  end="source" d="M 26 0 L 0 13 L 26 26 z"></path></g><g  id="v-1178"><path  end="target" d="M 26 0 L 0 13 L 26 26 z"></path></g></g><g  id="v-1188" display="none"><g  id="v-1175" transform="translate(2606.444316913534, 2061.5132852057823) "><g  event="remove"><circle r="11"></circle><path transform="scale(.8) translate(-16, -16)" d="M24.778,21.419 19.276,15.917 24.777,10.415 21.949,7.585 16.447,13.087 10.945,7.585 8.117,10.415 13.618,15.917 8.116,21.419 10.946,24.248 16.447,18.746 21.948,24.248z"></path><title>Remove link.</title></g><g  event="link:options"><circle r="11" transform="translate(25)"></circle><path fill="white" transform="scale(.55) translate(29, -16)" d="M31.229,17.736c0.064-0.571,0.104-1.148,0.104-1.736s-0.04-1.166-0.104-1.737l-4.377-1.557c-0.218-0.716-0.504-1.401-0.851-2.05l1.993-4.192c-0.725-0.91-1.549-1.734-2.458-2.459l-4.193,1.994c-0.647-0.347-1.334-0.632-2.049-0.849l-1.558-4.378C17.165,0.708,16.588,0.667,16,0.667s-1.166,0.041-1.737,0.105L12.707,5.15c-0.716,0.217-1.401,0.502-2.05,0.849L6.464,4.005C5.554,4.73,4.73,5.554,4.005,6.464l1.994,4.192c-0.347,0.648-0.632,1.334-0.849,2.05l-4.378,1.557C0.708,14.834,0.667,15.412,0.667,16s0.041,1.165,0.105,1.736l4.378,1.558c0.217,0.715,0.502,1.401,0.849,2.049l-1.994,4.193c0.725,0.909,1.549,1.733,2.459,2.458l4.192-1.993c0.648,0.347,1.334,0.633,2.05,0.851l1.557,4.377c0.571,0.064,1.148,0.104,1.737,0.104c0.588,0,1.165-0.04,1.736-0.104l1.558-4.377c0.715-0.218,1.399-0.504,2.049-0.851l4.193,1.993c0.909-0.725,1.733-1.549,2.458-2.458l-1.993-4.193c0.347-0.647,0.633-1.334,0.851-2.049L31.229,17.736zM16,20.871c-2.69,0-4.872-2.182-4.872-4.871c0-2.69,2.182-4.872,4.872-4.872c2.689,0,4.871,2.182,4.871,4.872C20.871,18.689,18.689,20.871,16,20.871z"></path><title>Link options.</title></g></g></g></g><g   id="j_97" ><path  stroke="#707070" d="M 1823 1318 L 2125 1161" id="v-1199" stroke-width="2" stroke-dasharray="30 30" fill="none" style="opacity: 1;"></path><path  fill="black" stroke="black" d="M 0 0 0 0" transform="matrix(0.8882019154375509,-0.4594533245206368,0.4594533245206368,0.8882019154375509,1823,1317.6099853515625)"></path><path  fill="#707070" stroke="#707070" d="M 20 0 L 0 10 L 20 20 z" id="v-1201" transform="matrix(-0.888201915437551,0.4594533245206367,-0.4594533245206367,-0.888201915437551,2129.594472321457,1170.2719829794817)" style="opacity: 1;"></path><path  d="M 1823 1318 L 2125 1161" id="v-1200" fill="none" style="cursor: default;"></path><g ><g id="v-1193"  label-idx="0" cursor="move" transform="matrix(1,0,0,1,1974,1239.5)" style="cursor: default; opacity: 1;"><rect joint-selector="rect" id="v-1196" fill="#ffffff" rx="3" ry="3" pointer-events="none" width="0" height="0" transform="matrix(1,0,0,1,0,0)"></rect><text joint-selector="text" id="v-1195" font-size="24px" xml:space="preserve" display="none" y="0.8em" fill="#707070" text-anchor="middle" pointer-events="none" font-family="Open Sans" font-weight="normal"><tspan dy="0" style="fill-opacity: 0; stroke-opacity: 0;" >-</tspan></text></g><g id="v-1194"  label-idx="1" cursor="move" transform="matrix(1,0,0,1,1964,1251.5)" style="cursor: default; opacity: 1;"><rect joint-selector="rect" id="v-1198" fill="#ffffff" rx="3" ry="3"  width="0" height="0" transform="matrix(1,0,0,1,0,0)" display="none"></rect><text joint-selector="text" id="v-1197" fill="#000000" font-size="14" text-anchor="middle" pointer-events="none"></text></g></g><g  display="none"></g><g  id="v-1203" display="none"><g  id="v-1191"><path  end="source" d="M 26 0 L 0 13 L 26 26 z"></path></g><g  id="v-1192"><path  end="target" d="M 26 0 L 0 13 L 26 26 z"></path></g></g><g  id="v-1202" display="none"><g  id="v-1190" transform="translate(1858.4905959633932, 1299.549590840223) "><g  event="remove"><circle r="11"></circle><path transform="scale(.8) translate(-16, -16)" d="M24.778,21.419 19.276,15.917 24.777,10.415 21.949,7.585 16.447,13.087 10.945,7.585 8.117,10.415 13.618,15.917 8.116,21.419 10.946,24.248 16.447,18.746 21.948,24.248z"></path><title>Remove link.</title></g><g  event="link:options"><circle r="11" transform="translate(25)"></circle><path fill="white" transform="scale(.55) translate(29, -16)" d="M31.229,17.736c0.064-0.571,0.104-1.148,0.104-1.736s-0.04-1.166-0.104-1.737l-4.377-1.557c-0.218-0.716-0.504-1.401-0.851-2.05l1.993-4.192c-0.725-0.91-1.549-1.734-2.458-2.459l-4.193,1.994c-0.647-0.347-1.334-0.632-2.049-0.849l-1.558-4.378C17.165,0.708,16.588,0.667,16,0.667s-1.166,0.041-1.737,0.105L12.707,5.15c-0.716,0.217-1.401,0.502-2.05,0.849L6.464,4.005C5.554,4.73,4.73,5.554,4.005,6.464l1.994,4.192c-0.347,0.648-0.632,1.334-0.849,2.05l-4.378,1.557C0.708,14.834,0.667,15.412,0.667,16s0.041,1.165,0.105,1.736l4.378,1.558c0.217,0.715,0.502,1.401,0.849,2.049l-1.994,4.193c0.725,0.909,1.549,1.733,2.459,2.458l4.192-1.993c0.648,0.347,1.334,0.633,2.05,0.851l1.557,4.377c0.571,0.064,1.148,0.104,1.737,0.104c0.588,0,1.165-0.04,1.736-0.104l1.558-4.377c0.715-0.218,1.399-0.504,2.049-0.851l4.193,1.993c0.909-0.725,1.733-1.549,2.458-2.458l-1.993-4.193c0.347-0.647,0.633-1.334,0.851-2.049L31.229,17.736zM16,20.871c-2.69,0-4.872-2.182-4.872-4.871c0-2.69,2.182-4.872,4.872-4.872c2.689,0,4.871,2.182,4.871,4.872C20.871,18.689,18.689,20.871,16,20.871z"></path><title>Link options.</title></g></g></g></g></g><g ></g><g ></g><g ></g></g></svg>