<svg width="524" height="129" viewBox="0 0 524 129" fill="none" xmlns="http://www.w3.org/2000/svg">
<path d="M76.818 86.1928L30.335 95.4484L0 101.58V24.5274L76.818 86.1928Z" fill="url(#paint0_linear_1_476)"/>
<path d="M76.818 86.1928L46.3676 0L0 24.5274L76.818 86.1928Z" fill="#F9B41E"/>
<path d="M76.818 86.1928L46.1369 129L31.1424 95.3328L76.818 86.1928Z" fill="#E18A26"/>
<path opacity="0.4" d="M46.3676 0L0 24.5274L46.1369 129L46.3676 0Z" fill="url(#paint1_linear_1_476)"/>
<path d="M46.1369 129L0 101.58L31.2578 95.217L46.1369 129Z" fill="#D57428"/>
<path d="M99.8864 23.0233V14.1148H95.3881V27.5354H108.883V23.0233H99.8864Z" fill="#1D98D5"/>
<path d="M117.764 5.09058H95.3881V11.8009H99.8864V9.60268H113.381V23.0233H111.075V27.5354H117.764V5.09058Z" fill="white"/>
<path d="M123.762 5.32198H130.567V21.8664H140.372V27.5354H123.762V5.32198Z" fill="white"/>
<path d="M143.255 5.32198H160.326V10.991H150.06V13.7677H158.942V19.0897H150.06V27.5354H143.255V5.32198Z" fill="white"/>
<path d="M177.973 27.6511H165.632V5.32198H177.973V6.71032H167.246V15.1561H177.396V16.6601H167.246V26.2628H177.973V27.6511Z" fill="#1D98D5"/>
<path d="M199.542 27.6511H197.927L184.548 7.75157H184.432C184.548 10.0655 184.663 11.9166 184.663 13.0735V27.5354H183.164V5.32198H184.778L198.158 25.2215H198.273C198.158 23.3704 198.158 21.635 198.158 20.0153V5.32198H199.658L199.542 27.6511Z" fill="#1D98D5"/>
<path d="M218.343 27.6511H206.001V5.32198H218.343V6.71032H207.501V15.1561H217.766V16.6601H207.501V26.2628H218.343V27.6511Z" fill="#1D98D5"/>
<path d="M225.033 17.9327V27.6511H223.418V5.32198H228.839C231.607 5.32198 233.684 5.78476 235.068 6.82601C236.452 7.86727 237.028 9.3713 237.028 11.4538C237.028 12.9579 236.682 14.2305 235.875 15.2718C235.068 16.313 233.914 17.0072 232.184 17.47L238.297 27.6511H236.452L230.569 17.9327H225.033ZM225.033 16.5444H229.3C231.146 16.5444 232.761 16.0816 233.684 15.2718C234.722 14.4619 235.298 13.1892 235.298 11.5695C235.298 9.83408 234.837 8.67713 233.799 7.86727C232.761 7.0574 231.146 6.71032 228.724 6.71032H225.033V16.5444Z" fill="#1D98D5"/>
<path d="M250.985 16.0816H259.174V26.0314C256.983 26.9569 254.676 27.4197 251.908 27.4197C248.447 27.4197 245.679 26.4942 243.949 24.5274C242.103 22.5605 241.181 19.7839 241.181 16.1973C241.181 13.9991 241.642 12.0323 242.565 10.2969C243.488 8.56143 244.872 7.28878 246.486 6.36322C248.217 5.43766 250.177 4.97488 252.369 4.97488C254.791 4.97488 256.983 5.43766 258.828 6.24753L258.251 7.63587C256.291 6.71031 254.33 6.36322 252.254 6.36322C249.37 6.36322 247.063 7.28879 245.333 9.02421C243.603 10.7596 242.796 13.1892 242.796 16.1973C242.796 19.4368 243.603 21.9821 245.218 23.6018C246.832 25.2215 249.255 26.0314 252.369 26.0314C254.445 26.0314 256.175 25.8 257.559 25.2215V17.5856H250.985V16.0816Z" fill="#1D98D5"/>
<path d="M269.901 17.47L276.475 5.32198H278.206L270.708 18.974V27.5354H269.094V19.0897L261.481 5.32198H263.326L269.901 17.47Z" fill="#1D98D5"/>
<path d="M152.829 99.1507C150.752 112.109 141.986 124.372 122.493 124.372C98.387 124.372 89.7363 106.787 89.7363 84.9202C89.7363 63.4009 100.809 45.6996 123.07 45.6996C143.716 45.6996 151.56 58.8888 152.367 70.6897H137.142C135.527 64.4422 133.105 58.1946 122.609 58.1946C109.921 58.1946 105.654 71.0368 105.654 84.9202C105.654 99.4978 109.691 111.993 122.724 111.993C132.99 111.993 135.989 104.82 137.373 99.1507H152.829Z" fill="white"/>
<path d="M161.133 55.9964V41.9973H176.243V55.9964H161.133ZM161.133 65.3677H176.243V123.215H161.133V65.3677Z" fill="white"/>
<path d="M183.164 65.3677H191.353V49.7489H206.347V65.3677H216.613V77.1686H206.347V106.902C206.347 110.836 207.385 112.456 211.999 112.456C213.383 112.456 213.845 112.456 215.459 112.224V122.637C212.46 123.678 208.193 123.794 206.232 123.794C195.044 123.794 191.353 119.282 191.353 108.638V77.2843H183.164V65.3677Z" fill="white"/>
<path d="M223.764 85.0359C223.764 75.5489 223.764 69.417 223.533 65.3677H238.297C238.643 67.913 238.759 71.6153 238.759 75.5489C240.604 70.6897 245.794 64.4422 256.291 64.4422V79.8296C244.41 79.5982 238.989 83.6475 238.989 96.9525V123.215H223.764V85.0359Z" fill="white"/>
<path d="M263.903 55.9964V41.9973H279.013V55.9964H263.903ZM263.903 65.3677H279.013V123.215H263.903V65.3677Z" fill="white"/>
<path d="M289.97 83.5318C289.97 71.6152 289.855 68.0287 289.74 65.4834H304.504C304.734 66.6404 305.08 70.3426 305.08 73.0036C307.387 68.4915 312.924 64.4422 321.113 64.4422C333.224 64.4422 339.337 72.3094 339.337 85.6144V123.447H324.112V88.2753C324.112 81.6807 322.497 76.8215 315.346 76.8215C308.425 76.8215 305.08 80.8708 305.08 91.052V123.331H289.97V83.5318Z" fill="white"/>
<path d="M361.252 97.7623C361.252 104.82 363.905 112.456 372.556 112.456C379.476 112.456 381.552 108.059 382.475 105.514H397.239C394.471 115.117 387.665 124.256 372.094 124.256C353.755 124.256 346.027 111.646 346.027 94.4072C346.027 80.061 353.178 64.2108 372.786 64.2108C392.164 64.2108 397.931 78.0942 397.931 93.0188C397.931 93.8287 397.816 96.8368 397.7 97.7623H361.252ZM383.167 87.8125C382.936 81.3336 380.284 75.6646 372.44 75.6646C363.905 75.6646 361.713 82.722 361.367 87.8125H383.167Z" fill="white"/>
<path d="M468.751 84.1103C468.751 106.324 458.601 124.488 436.686 124.488C416.27 124.488 405.428 107.943 405.428 84.226C405.428 63.5166 415.924 44.8897 437.609 44.8897C458.024 44.774 468.751 61.2027 468.751 84.1103ZM412.925 83.9946C412.925 103.084 420.769 118.009 437.147 118.009C453.872 118.009 461.369 103.2 461.369 84.226C461.369 65.252 453.641 51.3686 437.378 51.3686C420.423 51.3686 412.925 66.0619 412.925 83.9946Z" fill="white"/>
<path d="M480.977 101.812C482.592 112.918 490.205 117.893 499.663 117.893C509.121 117.893 516.272 112.803 516.272 103.084C516.272 93.9444 512.35 90.0108 497.933 85.383C482.477 80.5238 476.248 75.4332 476.248 64.3265C476.248 52.8726 484.668 44.8897 498.971 44.8897C514.888 44.8897 521.693 54.7238 522.501 65.1363H515.119C513.85 56.4592 508.659 51.1372 498.625 51.1372C488.821 51.1372 483.861 55.9964 483.861 63.748C483.861 71.4995 488.013 74.8547 500.816 78.7883C519.617 84.4574 524 91.6305 524 102.159C524 115.117 515.003 123.909 499.432 123.909C483.746 123.909 474.864 115.348 473.711 101.696H480.977V101.812Z" fill="white"/>
<defs>
<linearGradient id="paint0_linear_1_476" x1="55.4628" y1="35.1763" x2="5.60518" y2="93.7391" gradientUnits="userSpaceOnUse">
<stop offset="0.1723" stop-color="#F7EF79"/>
<stop offset="0.5313" stop-color="#F9B41E"/>
<stop offset="0.6042" stop-color="#F8AC24"/>
<stop offset="0.7357" stop-color="#F6962E"/>
<stop offset="0.8689" stop-color="#F47C36"/>
</linearGradient>
<linearGradient id="paint1_linear_1_476" x1="0" y1="64.5164" x2="46.3964" y2="64.5164" gradientUnits="userSpaceOnUse">
<stop offset="0.1723" stop-color="#FBF8CD"/>
<stop offset="0.3223" stop-color="#FAF6BA"/>
<stop offset="0.709" stop-color="#F8F18C"/>
<stop offset="0.8942" stop-color="#F7EF79"/>
</linearGradient>
</defs>
</svg>
