<?xml version="1.0" encoding="UTF-8"?><svg id="Logo" xmlns="http://www.w3.org/2000/svg" xmlns:xlink="http://www.w3.org/1999/xlink" viewBox="0 0 500 150"><defs><style>.cls-1{fill:#fab520;}.cls-2{fill:#fff;}.cls-3{fill:#e38900;}.cls-4{fill:#d67200;}.cls-5{fill:url(#Unbenannter_Verlauf_631);}.cls-6{fill:url(#Unbenannter_Verlauf_613);opacity:.4;}</style><linearGradient id="Unbenannter_Verlauf_631" x1="78.25" y1="58.77" x2="52.37" y2="89.26" gradientTransform="matrix(1, 0, 0, 1, 0, 0)" gradientUnits="userSpaceOnUse"><stop offset=".17" stop-color="#fcff74"/><stop offset=".53" stop-color="#fab520"/><stop offset=".63" stop-color="#faa924"/><stop offset=".8" stop-color="#fa892f"/><stop offset=".87" stop-color="#fa7c35"/></linearGradient><linearGradient id="Unbenannter_Verlauf_613" x1="49.36" y1="74" x2="73.53" y2="74" gradientTransform="matrix(1, 0, 0, 1, 0, 0)" gradientUnits="userSpaceOnUse"><stop offset=".17" stop-color="#fdffcb"/><stop offset=".21" stop-color="#fcffc6"/><stop offset=".67" stop-color="#fcff8b"/><stop offset=".89" stop-color="#fcff74"/></linearGradient></defs><g><path class="cls-2" d="M115.25,100.05c-4.24-2.17-7.61-5.41-10.1-9.7-2.49-4.29-3.74-9.46-3.74-15.51s1.26-11.21,3.78-15.51c2.52-4.29,5.9-7.53,10.14-9.7,4.24-2.17,8.91-3.26,14-3.26,4.61,0,8.79,.82,12.52,2.46,3.74,1.64,6.76,3.98,9.06,7,2.31,3.02,3.7,6.52,4.17,10.5h-12.48c-.37-2.86-1.8-5.19-4.29-7-2.49-1.8-5.49-2.7-8.98-2.7-3.02,0-5.74,.7-8.15,2.11-2.41,1.41-4.31,3.47-5.69,6.2-1.38,2.73-2.07,6.03-2.07,9.9s.69,7.17,2.07,9.9c1.38,2.73,3.27,4.78,5.69,6.16,2.41,1.38,5.13,2.07,8.15,2.07,3.55,0,6.59-.89,9.1-2.66,2.52-1.78,4.02-4.1,4.49-6.96h11.93c-.32,3.92-1.6,7.4-3.86,10.42-2.25,3.02-5.25,5.37-8.99,7.04s-7.97,2.5-12.68,2.5c-5.14,0-9.83-1.09-14.07-3.26Z"/><path class="cls-2" d="M171.78,45.18v11.69h-11.77v-11.69h11.77Zm-11.45,17.41h11.13v40.08h-11.13V62.6Z"/><path class="cls-2" d="M195.79,50.75v11.85h10.73v9.22h-10.73v15.82c0,3.82,1.88,5.73,5.65,5.73h5.09v9.3h-6.6c-4.67,0-8.36-1.27-11.09-3.82-2.73-2.54-4.1-6.12-4.1-10.73v-16.3h-7.71v-9.22h7.71v-11.85h11.05Z"/><path class="cls-2" d="M226.41,74.84c-1.33,2.02-1.99,4.8-1.99,8.35v19.48h-11.13V62.6h11.13v6.68c1.06-2.44,2.37-4.16,3.94-5.17,1.56-1.01,3.59-1.51,6.08-1.51h4.53v9.22h-6.6c-2.65,0-4.64,1.01-5.96,3.02Z"/><path class="cls-2" d="M255.59,45.18v11.69h-11.77v-11.69h11.77Zm-11.45,17.41h11.13v40.08h-11.13V62.6Z"/><path class="cls-2" d="M263.38,62.6h11.13v5.57c1.11-1.96,2.73-3.48,4.85-4.57,2.12-1.09,4.56-1.63,7.32-1.63,2.97,0,5.58,.66,7.83,1.99,2.25,1.33,4,3.18,5.25,5.57,1.25,2.39,1.87,5.12,1.87,8.19v24.97h-11.13v-22.5c0-2.44-.72-4.44-2.15-6-1.43-1.56-3.29-2.35-5.57-2.35-2.44,0-4.43,.83-5.96,2.5-1.54,1.67-2.31,3.8-2.31,6.4v21.95h-11.13V62.6Z"/><path class="cls-2" d="M307.87,72.53c1.46-3.13,3.68-5.67,6.68-7.63,2.99-1.96,6.64-2.94,10.93-2.94s8.16,.95,11.13,2.86c2.97,1.91,5.15,4.35,6.56,7.32,1.4,2.97,2.11,6.1,2.11,9.38,0,1.22-.05,2.41-.16,3.58h-28.78c.42,2.86,1.5,5.1,3.22,6.72,1.72,1.62,3.96,2.43,6.72,2.43,2.23,0,4.06-.44,5.49-1.31,1.43-.87,2.36-2.16,2.78-3.86h10.81c-.79,4.29-2.94,7.74-6.44,10.34-3.5,2.6-7.71,3.9-12.64,3.9-4.35,0-8.07-.99-11.17-2.98s-5.45-4.57-7.04-7.75-2.39-6.52-2.39-10.02,.73-6.89,2.19-10.02Zm26.36,5.57c-.16-2.33-1.01-4.25-2.54-5.77-1.54-1.51-3.61-2.27-6.2-2.27s-4.56,.65-6.04,1.95c-1.48,1.3-2.46,3.33-2.94,6.08h17.73Z"/><path class="cls-2" d="M364.01,99.61c-4.11-2.46-7.33-5.86-9.66-10.18-2.33-4.32-3.5-9.18-3.5-14.59s1.17-10.27,3.5-14.59c2.33-4.32,5.55-7.71,9.66-10.18,4.11-2.46,8.71-3.7,13.8-3.7s9.7,1.23,13.84,3.7c4.14,2.46,7.37,5.86,9.7,10.18,2.33,4.32,3.5,9.18,3.5,14.59s-1.17,10.27-3.5,14.59c-2.33,4.32-5.57,7.71-9.7,10.18-4.13,2.47-8.75,3.7-13.84,3.7s-9.69-1.23-13.8-3.7Zm-4.81-12.72c1.85,3.58,4.41,6.39,7.67,8.43,3.26,2.04,6.9,3.06,10.93,3.06s7.69-1.02,10.97-3.06c3.29-2.04,5.86-4.85,7.71-8.43,1.85-3.58,2.78-7.59,2.78-12.05s-.93-8.47-2.78-12.05c-1.86-3.58-4.43-6.39-7.71-8.43-3.29-2.04-6.95-3.06-10.97-3.06s-7.67,1.02-10.93,3.06c-3.26,2.04-5.82,4.85-7.67,8.43-1.86,3.58-2.78,7.59-2.78,12.05s.93,8.47,2.78,12.05Z"/><path class="cls-2" d="M415.57,98.26c-3.71-3.37-5.78-7.91-6.2-13.64h5.33c.42,4.24,1.99,7.59,4.69,10.06,2.7,2.46,6.36,3.7,10.97,3.7s8-.87,10.66-2.62c2.65-1.75,3.98-4.4,3.98-7.95,0-2.28-.68-4.12-2.03-5.53-1.35-1.4-3.04-2.5-5.05-3.3-2.02-.79-4.77-1.7-8.27-2.7-4.03-1.17-7.24-2.25-9.62-3.26-2.39-1.01-4.43-2.49-6.12-4.45-1.7-1.96-2.54-4.53-2.54-7.71,0-2.86,.78-5.38,2.35-7.55,1.56-2.17,3.78-3.87,6.64-5.09,2.86-1.22,6.12-1.83,9.78-1.83,5.41,0,9.87,1.47,13.4,4.41,3.52,2.94,5.53,6.85,6,11.73h-5.33c-.37-3.39-1.82-6.11-4.33-8.15-2.52-2.04-5.76-3.06-9.74-3.06s-7.38,.85-9.74,2.54c-2.36,1.7-3.54,4.03-3.54,7,0,2.17,.66,3.94,1.99,5.29,1.32,1.35,2.95,2.4,4.89,3.14,1.93,.74,4.6,1.56,7.99,2.46,4.13,1.06,7.45,2.11,9.94,3.14,2.49,1.03,4.61,2.58,6.36,4.65,1.75,2.07,2.62,4.82,2.62,8.27,0,3.23-.87,6.02-2.62,8.35-1.75,2.33-4.16,4.11-7.24,5.33-3.07,1.22-6.55,1.83-10.42,1.83-6.15,0-11.08-1.68-14.79-5.05Z"/></g><g><polygon class="cls-5" points="89.36 85.24 65.15 90.08 49.36 93.24 49.36 53.24 89.36 85.24"/><polygon class="cls-1" points="89.36 85.24 73.53 40.5 49.36 53.24 89.36 85.24"/><polygon class="cls-3" points="89.36 85.24 73.4 107.51 65.61 89.98 89.36 85.24"/><polygon class="cls-6" points="73.53 40.5 49.36 53.24 73.4 107.51 73.53 40.5"/><polygon class="cls-4" points="73.4 107.51 49.36 93.24 65.64 89.97 73.4 107.51"/></g></svg>