<?xml version="1.0" encoding="UTF-8"?><svg id="Logo" xmlns="http://www.w3.org/2000/svg" xmlns:xlink="http://www.w3.org/1999/xlink" viewBox="0 0 500 150"><defs><style>.cls-1{fill:#fff;}.cls-2{fill:#989898;}.cls-3{fill:#666;}.cls-4{fill:#3a3a3a;}.cls-5{fill:url(#Unbenannter_Verlauf_696);}.cls-6{fill:#e1e1e1;opacity:.3;}</style><linearGradient id="Unbenannter_Verlauf_696" x1="130.89" y1="58.77" x2="105.01" y2="89.26" gradientTransform="matrix(1, 0, 0, 1, 0, 0)" gradientUnits="userSpaceOnUse"><stop offset=".17" stop-color="#e5e5e5"/><stop offset=".53" stop-color="gray"/><stop offset=".64" stop-color="#747474"/><stop offset=".83" stop-color="#545454"/><stop offset=".87" stop-color="#4d4d4d"/></linearGradient></defs><g><path class="cls-1" d="M167.88,100.05c-4.24-2.17-7.61-5.41-10.1-9.7-2.49-4.29-3.74-9.46-3.74-15.51s1.26-11.21,3.78-15.51c2.52-4.29,5.9-7.53,10.14-9.7,4.24-2.17,8.91-3.26,14-3.26,4.61,0,8.79,.82,12.52,2.46,3.74,1.64,6.76,3.98,9.06,7,2.31,3.02,3.7,6.52,4.17,10.5h-12.48c-.37-2.86-1.8-5.19-4.29-7-2.49-1.8-5.49-2.7-8.98-2.7-3.02,0-5.74,.7-8.15,2.11-2.41,1.41-4.31,3.47-5.69,6.2-1.38,2.73-2.07,6.03-2.07,9.9s.69,7.17,2.07,9.9c1.38,2.73,3.27,4.78,5.69,6.16,2.41,1.38,5.13,2.07,8.15,2.07,3.55,0,6.59-.89,9.1-2.66,2.52-1.78,4.02-4.1,4.49-6.96h11.93c-.32,3.92-1.6,7.4-3.86,10.42-2.25,3.02-5.25,5.37-8.99,7.04s-7.97,2.5-12.68,2.5c-5.14,0-9.83-1.09-14.07-3.26Z"/><path class="cls-1" d="M224.42,45.18v11.69h-11.77v-11.69h11.77Zm-11.45,17.41h11.13v40.08h-11.13V62.6Z"/><path class="cls-1" d="M248.43,50.75v11.85h10.73v9.22h-10.73v15.82c0,3.82,1.88,5.73,5.65,5.73h5.09v9.3h-6.6c-4.67,0-8.36-1.27-11.09-3.82-2.73-2.54-4.1-6.12-4.1-10.73v-16.3h-7.71v-9.22h7.71v-11.85h11.05Z"/><path class="cls-1" d="M279.05,74.84c-1.33,2.02-1.99,4.8-1.99,8.35v19.48h-11.13V62.6h11.13v6.68c1.06-2.44,2.37-4.16,3.94-5.17,1.56-1.01,3.59-1.51,6.08-1.51h4.53v9.22h-6.6c-2.65,0-4.64,1.01-5.96,3.02Z"/><path class="cls-1" d="M308.23,45.18v11.69h-11.77v-11.69h11.77Zm-11.45,17.41h11.13v40.08h-11.13V62.6Z"/><path class="cls-1" d="M316.02,62.6h11.13v5.57c1.11-1.96,2.73-3.48,4.85-4.57,2.12-1.09,4.56-1.63,7.32-1.63,2.97,0,5.58,.66,7.83,1.99,2.25,1.33,4,3.18,5.25,5.57,1.25,2.39,1.87,5.12,1.87,8.19v24.97h-11.13v-22.5c0-2.44-.72-4.44-2.15-6-1.43-1.56-3.29-2.35-5.57-2.35-2.44,0-4.43,.83-5.96,2.5-1.54,1.67-2.31,3.8-2.31,6.4v21.95h-11.13V62.6Z"/><path class="cls-1" d="M360.51,72.53c1.46-3.13,3.68-5.67,6.68-7.63,2.99-1.96,6.64-2.94,10.93-2.94s8.16,.95,11.13,2.86c2.97,1.91,5.15,4.35,6.56,7.32,1.4,2.97,2.11,6.1,2.11,9.38,0,1.22-.05,2.41-.16,3.58h-28.78c.42,2.86,1.5,5.1,3.22,6.72,1.72,1.62,3.96,2.43,6.72,2.43,2.23,0,4.06-.44,5.49-1.31,1.43-.87,2.36-2.16,2.78-3.86h10.81c-.79,4.29-2.94,7.74-6.44,10.34-3.5,2.6-7.71,3.9-12.64,3.9-4.35,0-8.07-.99-11.17-2.98s-5.45-4.57-7.04-7.75-2.39-6.52-2.39-10.02,.73-6.89,2.19-10.02Zm26.36,5.57c-.16-2.33-1.01-4.25-2.54-5.77-1.54-1.51-3.61-2.27-6.2-2.27s-4.56,.65-6.04,1.95c-1.48,1.3-2.46,3.33-2.94,6.08h17.73Z"/></g><g><polygon class="cls-5" points="142 85.24 117.79 90.08 102 93.24 102 53.24 142 85.24"/><polygon class="cls-2" points="142 85.24 126.17 40.5 102 53.24 142 85.24"/><polygon class="cls-3" points="142 85.24 126.04 107.51 118.25 89.98 142 85.24"/><polygon class="cls-6" points="126.17 40.5 102 53.24 126.04 107.51 126.17 40.5"/><polygon class="cls-4" points="126.04 107.51 102 93.24 118.28 89.97 126.04 107.51"/></g></svg>